<?xml version="1.0" encoding="UTF-8"?><svg id="Layer_1" xmlns="http://www.w3.org/2000/svg" width="8.47mm" height="8.47mm" xmlns:xlink="http://www.w3.org/1999/xlink" viewBox="0 0 24 24"><defs><style>.cls-1{fill:#f7f1e5;}.cls-2{fill:none;}.cls-3{clip-path:url(#clippath);}</style><clipPath id="clippath"><rect class="cls-2" width="24" height="24"/></clipPath></defs><g class="cls-3"><path class="cls-1" d="M12,0c6.63,0,12,5.37,12,12,0,6.14-4.6,11.19-10.55,11.91v-8.25h3.25l.67-3.67h-3.92v-1.3c0-.97.19-1.64.63-2.07.44-.43,1.12-.61,2.1-.61.25,0,.48,0,.68,0,.3,0,.54.02.7.04v-3.32c-.07-.02-.15-.04-.24-.06-.2-.04-.45-.08-.72-.12-.56-.07-1.2-.13-1.65-.13-1.82,0-3.19.39-4.15,1.19-1.16.97-1.71,2.55-1.71,4.78v1.58h-2.47v3.67h2.47v7.98C3.87,22.35,0,17.63,0,12,0,5.37,5.37,0,12,0Z"/></g></svg>