<?xml version="1.0" encoding="UTF-8"?>
<svg id="Layer_1" xmlns="http://www.w3.org/2000/svg" viewBox="0 0 72.48 72.48">
  <defs>
    <style>
      .cls-1 {
        fill: #f15b22;
      }
    </style>
  </defs>
  <path class="cls-1" d="M72.48,36.24c0-1.1-.9-2-2-2h-19.61l18.51-5c1.07-.29,1.7-1.39,1.41-2.45-.29-1.07-1.39-1.7-2.45-1.41l-17.45,4.71,15.68-9.05c.96-.55,1.28-1.78.73-2.73-.55-.96-1.78-1.29-2.73-.73l-16.17,9.34,13.47-13.47c.78-.78.78-2.05,0-2.83-.78-.78-2.05-.78-2.83,0l-13.47,13.47,9.52-16.5c.55-.96.22-2.18-.73-2.73-.96-.56-2.18-.22-2.73.73l-9.38,16.25,4.65-18.07c.28-1.07-.37-2.16-1.44-2.44-1.07-.28-2.16.37-2.43,1.44l-4.78,18.59V2c0-1.1-.9-2-2-2s-2,.9-2,2v19.35L29.13,2.69c-.29-1.07-1.4-1.69-2.46-1.4-1.07.29-1.69,1.39-1.4,2.46l4.94,18.07L20.85,5.59c-.55-.96-1.78-1.29-2.73-.73-.96.55-1.28,1.78-.73,2.73l9.52,16.5-13.47-13.47c-.78-.78-2.05-.78-2.83,0-.78.78-.78,2.05,0,2.83l13.47,13.47L7.59,17.39c-.96-.55-2.18-.22-2.73.73-.55.96-.22,2.18.73,2.73l17.15,9.9L3.54,25.89c-1.07-.27-2.16.38-2.43,1.45-.27,1.07.38,2.16,1.45,2.43l17.65,4.47H2c-1.1,0-2,.9-2,2s.9,2,2,2h18.74l-18.51,5c-1.07.29-1.7,1.39-1.41,2.45.24.89,1.05,1.48,1.93,1.48.17,0,.35-.02.52-.07l19.08-5.16-17.09,9.87c-.96.55-1.28,1.78-.73,2.73.37.64,1.04,1,1.73,1,.34,0,.68-.09,1-.27l16.82-9.71-13.47,13.47c-.78.78-.78,2.05,0,2.83.39.39.9.59,1.41.59s1.02-.2,1.41-.59l13.47-13.47-9.52,16.5c-.55.96-.22,2.18.73,2.73.32.18.66.27,1,.27.69,0,1.36-.36,1.73-1l10.23-17.72-5.12,19.92c-.28,1.07.37,2.16,1.44,2.43.17.04.33.06.5.06.89,0,1.7-.6,1.94-1.5l4.41-17.12v17.52c0,1.1.9,2,2,2s2-.9,2-2v-19.35l5.1,18.66c.24.89,1.05,1.47,1.93,1.47.17,0,.35-.02.53-.07,1.07-.29,1.69-1.39,1.4-2.46l-4.94-18.07,9.37,16.23c.37.64,1.04,1,1.73,1,.34,0,.68-.09,1-.27.96-.55,1.28-1.78.73-2.73l-9.52-16.5,13.47,13.47c.39.39.9.59,1.41.59s1.02-.2,1.41-.59c.78-.78.78-2.05,0-2.83l-13.47-13.47,16.5,9.52c.32.18.66.27,1,.27.69,0,1.36-.36,1.73-1,.55-.96.22-2.18-.73-2.73l-17.15-9.9,19.19,4.87c.17.04.33.06.49.06.89,0,1.71-.6,1.94-1.51.27-1.07-.38-2.16-1.45-2.43l-17.65-4.47h18.21c1.1,0,2-.9,2-2ZM41.93,28.86c1.17,0,2.12.95,2.12,2.12s-.95,2.12-2.12,2.12-2.12-.95-2.12-2.12.95-2.12,2.12-2.12ZM30.65,28.86c1.17,0,2.12.95,2.12,2.12s-.95,2.12-2.12,2.12-2.12-.95-2.12-2.12.95-2.12,2.12-2.12ZM45.74,39.29c-1.67,2.63-5.4,4.32-9.51,4.32s-7.84-1.7-9.51-4.32c-.43-.67-.23-1.55.44-1.98.67-.43,1.56-.23,1.98.44,1.14,1.79,3.99,2.99,7.09,2.99s5.95-1.2,7.09-2.99c.42-.67,1.31-.87,1.98-.44.67.43.87,1.31.44,1.98Z"/>
</svg>