<?xml version="1.0" encoding="utf-8"?>
<!-- Generator: Adobe Illustrator 19.1.0, SVG Export Plug-In . SVG Version: 6.00 Build 0)  -->
<svg version="1.1" id="Layer_1" xmlns="http://www.w3.org/2000/svg" xmlns:xlink="http://www.w3.org/1999/xlink" x="0px" y="0px"
	 viewBox="0 0 400 107.1" enable-background="new 0 0 400 107.1" xml:space="preserve">
<path fill="#f7f1e5" d="M59.5,73.7C53.9,80.9,44.2,85.9,34,85.9c-19.6,0-34-14.3-34-33.8c0-18.9,14.3-33.8,33.2-33.8
	c9.4,0,18.3,3.8,24,10.1l-6.3,6.2c-3.8-4.2-10.7-7.4-17.7-7.4C19.8,27.3,9.4,38,9.4,52.2C9.4,67,20.1,77,34,77
	c6.9,0,12.7-2.6,16.1-6.1V54.1H31.4v-8.9h28.1V73.7z"/>
<path fill="#f7f1e5" d="M90.9,40c13,0,22.8,9.8,22.8,23c0,13.1-9.8,23-22.8,23s-22.8-9.8-22.8-23C68.1,49.8,77.8,40,90.9,40z
	 M90.9,77.5c8.2,0,13.9-6.5,13.9-14.5S99,48.4,90.9,48.4S77,54.9,77,63S82.7,77.5,90.9,77.5z"/>
<path fill="#f7f1e5" d="M125.3,78.5c-2.7-3.4-4-7.7-4-15.1V40.9h8.9v23.9c0,4.5,0.9,6.9,2.5,8.8c2,2.3,5.2,3.8,8.5,3.8
	c5.4,0,9.8-3.3,12.4-6.3V40.9h8.9V85h-8.6v-4c-2,1.9-6.8,5-12.9,5C134.7,85.9,129,83.1,125.3,78.5z"/>
<path fill="#f7f1e5" d="M208,81c-3.6,3.2-8.3,5-13.6,5c-3.9,0-8.1-1.1-11.1-2.9c-6.7-3.9-11.3-11.3-11.3-20.1s4.7-16.2,11.3-20.2
	c3-1.8,6.7-2.8,10.8-2.8c4.8,0,9.6,1.5,13.5,4.8V18.4h8.9V85H208V81z M207.7,54.7c-2.7-3.6-7.2-6.3-12.6-6.3
	c-8.5,0-14.2,6.8-14.2,14.5c0,7.9,6.1,14.5,14.6,14.5c4.5,0,9.1-2.3,12.1-6.3V54.7z"/>
<path fill="#f7f1e5" d="M262,81c-3.6,3.2-8.3,5-13.6,5c-3.9,0-8.1-1.1-11.1-2.9c-6.7-3.9-11.3-11.3-11.3-20.1s4.7-16.2,11.3-20.2
	c3-1.8,6.7-2.8,10.8-2.8c5,0,9.8,1.5,13.8,5v-4h8.6V85H262V81z M261.8,54.7c-2.7-3.6-7.2-6.3-12.6-6.3c-8.5,0-14.2,6.8-14.2,14.5
	c0,7.9,6.1,14.5,14.6,14.5c4.5,0,9.1-2.3,12.1-6.3V54.7z"/>
<path fill="#f7f1e5" d="M363.4,72.5c-2.9-9.2-14.6-12-21.4-5.2l-20.3,20.4l10.7-20.4c1-1.8-0.7-3.9-2.7-3.5l-22.5,5l23-13.1
	c8.1-4.6,8.8-16.1,1.3-21.6l-23.8-17.6c-18,18.8-20,48.4-3.7,69.6c16.3,21.3,45.5,26.9,68.3,14.3L363.4,72.5z"/>
<path fill="#f7f1e5" d="M388.9,20.9c-18-23.5-51.7-27.8-75.1-9.8c-2,1.6-3.9,3.2-5.6,5l32.1,8.7c4.3,1.1,7.9,3.9,10.1,7.8l1.4,2.4
	c1,1.8,3,2.7,5,2.5c3.3-0.4,7.2-0.7,8.5-0.2l4.8-1.5l-2.7,4.3c0.1,1.4-1.1,5.1-2.4,8.2c-0.8,1.9-0.3,4,1.1,5.4l2,2
	c3.1,3.1,4.9,7.3,4.9,11.7l0,32.8c2.1-1.2,4.2-2.6,6.2-4.1C402.5,78,406.9,44.4,388.9,20.9z"/>
</svg>
