<?xml version="1.0" encoding="UTF-8"?><svg id="Layer_1" xmlns="http://www.w3.org/2000/svg" width="523.79mm" height="51.62mm" xmlns:xlink="http://www.w3.org/1999/xlink" viewBox="0 0 1484.77 146.33"><defs><style>.cls-1{fill:none;}.cls-2{fill:#f7f1e4;}.cls-3{fill:#f7f1e5;}.cls-4{clip-path:url(#clippath);}</style><clipPath id="clippath"><rect class="cls-1" x="1351.77" y="13.33" width="133" height="133"/></clipPath></defs><path class="cls-3" d="M84.43,143.33V14.63h27.89v128.7h-27.89ZM0,143.33V14.63h28.08v128.7H0ZM16.57,89.7v-23.01h78.98v23.01H16.57ZM185.96,146.05c-10.27,0-19.3-2.01-27.1-6.04-7.8-4.16-13.91-10.21-18.33-18.13-4.42-8.06-6.63-18.07-6.63-30.03s2.21-21.9,6.63-29.83c4.55-7.93,10.73-13.85,18.52-17.75,7.93-4.03,16.9-6.04,26.91-6.04s19.31,2.01,27.1,6.04c7.93,4.03,14.11,10.08,18.53,18.14,4.55,7.93,6.82,17.87,6.82,29.84s-2.34,22.16-7.02,30.22c-4.55,7.93-10.79,13.84-18.72,17.75-7.8,3.9-16.71,5.85-26.71,5.85ZM186.94,125.19c5.07,0,9.29-1.17,12.68-3.51,3.51-2.34,6.11-5.85,7.8-10.53,1.82-4.81,2.73-10.59,2.73-17.35,0-7.15-.98-13.19-2.93-18.14-1.82-5.07-4.55-8.9-8.19-11.5-3.64-2.73-8.26-4.1-13.85-4.1-4.81,0-8.97,1.17-12.48,3.51-3.51,2.21-6.18,5.72-8,10.53-1.82,4.68-2.73,10.46-2.73,17.35,0,11.05,2.21,19.44,6.63,25.16,4.42,5.72,10.53,8.58,18.33,8.58ZM205.85,24.18c-4.16,0-7.54-.91-10.14-2.73-2.47-1.82-3.71-4.94-3.71-9.36s1.24-7.35,3.71-9.17c2.6-1.95,5.98-2.92,10.14-2.92s7.48.98,9.95,2.92c2.47,1.82,3.71,4.88,3.71,9.17,0,4.55-1.3,7.73-3.9,9.55-2.47,1.69-5.72,2.53-9.75,2.53ZM165.68,24.18c-4.16,0-7.54-.84-10.14-2.53-2.47-1.82-3.71-5-3.71-9.55,0-4.29,1.24-7.35,3.71-9.17,2.47-1.95,5.85-2.92,10.14-2.92,4.03,0,7.35.98,9.95,2.92,2.6,1.82,3.9,4.88,3.9,9.17s-1.3,7.54-3.9,9.36c-2.47,1.82-5.79,2.73-9.95,2.73ZM249.61,144.69l-1.75-25.74c1.43.26,2.86.46,4.29.58h3.51c5.46,0,9.62-.78,12.48-2.34,2.99-1.56,5.07-4.03,6.24-7.41,1.17-3.38,1.76-7.8,1.76-13.26V14.63h28.08v82.09c0,10.53-1.56,19.44-4.68,26.72-2.99,7.15-7.73,12.61-14.23,16.38-6.37,3.77-14.76,5.65-25.15,5.65-1.17,0-2.6-.07-4.29-.2-1.56-.13-3.64-.32-6.24-.58ZM382.03,146.05c-8.45,0-16.06-.85-22.82-2.53-6.63-1.56-12.35-3.97-17.16-7.22-4.68-3.38-8.39-7.54-11.11-12.48-2.6-5.07-4.1-10.86-4.49-17.36l24.57-7.99c.26,5.85,1.69,10.72,4.29,14.62,2.73,3.9,6.56,6.76,11.5,8.58s10.47,2.73,16.58,2.73,10.79-.71,14.82-2.14,7.08-3.32,9.16-5.65c2.08-2.47,3.12-5.14,3.12-8,0-3.38-1.3-6.11-3.9-8.19-2.6-2.08-6.17-3.83-10.72-5.26-4.42-1.43-9.49-2.79-15.21-4.1-6.37-1.43-12.67-3.06-18.91-4.88-6.11-1.82-11.7-4.16-16.77-7.02-4.94-2.86-8.9-6.57-11.89-11.11-2.86-4.55-4.29-10.27-4.29-17.16,0-7.93,1.95-14.76,5.85-20.48,4.03-5.85,9.88-10.4,17.55-13.65,7.67-3.25,16.9-4.88,27.69-4.88s20.21,1.62,27.89,4.88c7.8,3.12,13.85,7.6,18.14,13.45,4.29,5.72,6.63,12.55,7.02,20.48l-25.35,7.02c0-4.03-.65-7.54-1.95-10.53-1.3-2.99-3.12-5.46-5.46-7.41-2.34-2.08-5.26-3.64-8.77-4.68-3.38-1.04-7.28-1.56-11.7-1.56-5.07,0-9.49.65-13.26,1.95-3.64,1.3-6.43,3.06-8.39,5.26-1.82,2.21-2.73,4.81-2.73,7.8,0,3.51,1.43,6.44,4.29,8.78,2.99,2.21,6.89,4.03,11.7,5.46,4.94,1.43,10.33,2.8,16.18,4.09,5.59,1.17,11.24,2.67,16.96,4.49,5.85,1.69,11.24,3.97,16.18,6.83,5.07,2.73,9.1,6.5,12.09,11.31,3.12,4.68,4.68,10.6,4.68,17.75,0,7.8-2.08,14.62-6.24,20.47-4.16,5.85-10.4,10.4-18.72,13.65-8.19,3.12-18.33,4.68-30.42,4.68ZM459.51,143.33V14.63h28.08v57.52c6.63-2.73,12.81-6.17,18.52-10.33,5.85-4.29,11.05-9.03,15.6-14.24,4.55-5.2,8.45-10.6,11.7-16.19s5.59-11.18,7.02-16.77h32.17c-1.82,6.37-4.61,12.74-8.39,19.11-3.64,6.24-7.99,12.15-13.06,17.74-5.07,5.59-10.47,10.6-16.19,15.01-5.59,4.29-11.24,7.67-16.96,10.14v2.93c5.98,0,11.31.71,15.99,2.14,4.81,1.3,9.04,3.44,12.67,6.44,3.77,2.86,7.09,6.43,9.95,10.72s5.4,9.42,7.6,15.4l10.34,29.06h-31.78l-6.83-23.4c-1.82-6.37-4.23-11.44-7.22-15.21-2.99-3.9-6.82-6.69-11.51-8.39-4.68-1.82-10.79-2.73-18.33-2.73h-11.31v49.72h-28.08ZM644.39,146.05c-9.36,0-17.74-1.43-25.15-4.29-7.41-2.99-13.78-7.28-19.11-12.87-5.2-5.72-9.23-12.68-12.09-20.87-2.73-8.32-4.1-17.81-4.1-28.47,0-15.21,2.67-27.76,8-37.64,5.33-10.01,12.61-17.48,21.84-22.42,9.36-5.07,19.89-7.6,31.59-7.6,9.1,0,17.35,1.49,24.76,4.49,7.41,2.86,13.72,7.15,18.92,12.87,5.33,5.59,9.42,12.61,12.28,21.06,2.86,8.32,4.29,17.88,4.29,28.67s-1.43,20.74-4.29,29.06-7.02,15.34-12.48,21.06c-5.33,5.59-11.77,9.82-19.3,12.68-7.54,2.86-15.92,4.29-25.16,4.29ZM645.17,123.63c6.89,0,12.67-1.69,17.35-5.07s8.26-8.25,10.72-14.62c2.47-6.37,3.71-14.17,3.71-23.4s-1.3-17.81-3.9-24.57c-2.47-6.76-6.11-11.9-10.92-15.4-4.81-3.64-10.66-5.46-17.55-5.46s-12.54,1.75-17.35,5.26c-4.68,3.38-8.32,8.32-10.92,14.82-2.47,6.5-3.71,14.56-3.71,24.18,0,7.02.71,13.32,2.14,18.92,1.56,5.46,3.71,10.07,6.44,13.85,2.73,3.77,6.11,6.63,10.14,8.58,4.03,1.95,8.65,2.93,13.85,2.93ZM729.35,143.33V14.63h28.08v128.7h-28.08ZM735.2,143.33v-23.6h76.63v23.6h-76.63ZM828.37,143.33V14.63h28.28v128.7h-28.28ZM847.87,143.33v-22.82h79.76v22.82h-79.76ZM847.87,88.73v-20.86h70.01v20.86h-70.01ZM847.87,37.25V14.63h79.36v22.62h-79.36ZM949.48,143.33V14.63h36.66l58.3,91.06h2.15l-1.76-91.06h27.3v128.7h-33.15l-61.62-95.35h-2.15l1.76,95.35h-27.49ZM1114.13,143.33v-22.82h37.44c7.28,0,13.33-1.56,18.14-4.68,4.81-3.25,8.45-7.93,10.92-14.04,2.47-6.11,3.7-13.58,3.7-22.42,0-7.28-.78-13.52-2.34-18.72-1.56-5.33-3.9-9.69-7.02-13.06-2.99-3.38-6.82-5.92-11.5-7.6-4.55-1.69-9.95-2.53-16.19-2.53h-33.15V14.63h32.18c15.6,0,28.34,2.53,38.22,7.61,9.88,5.07,17.16,12.35,21.84,21.84,4.68,9.36,7.02,20.6,7.02,33.74,0,9.88-1.17,18.46-3.51,25.74s-5.53,13.46-9.56,18.53c-3.9,5.07-8.45,9.17-13.65,12.28-5.2,3.12-10.72,5.4-16.57,6.82-5.85,1.43-11.77,2.15-17.75,2.15h-38.22ZM1100.69,143.33V14.63h28.08v128.7h-28.08ZM1236.84,143.33V14.63h28.08v57.52c6.63-2.73,12.8-6.17,18.52-10.33,5.85-4.29,11.05-9.03,15.6-14.24,4.55-5.2,8.45-10.6,11.7-16.19s5.59-11.18,7.02-16.77h32.18c-1.82,6.37-4.62,12.74-8.39,19.11-3.64,6.24-7.99,12.15-13.06,17.74-5.07,5.59-10.47,10.6-16.19,15.01-5.59,4.29-11.24,7.67-16.96,10.14v2.93c5.98,0,11.31.71,15.99,2.14,4.81,1.3,9.03,3.44,12.67,6.44,3.77,2.86,7.09,6.43,9.95,10.72,2.86,4.29,5.39,9.42,7.6,15.4l10.34,29.06h-31.79l-6.82-23.4c-1.82-6.37-4.23-11.44-7.22-15.21-2.99-3.9-6.82-6.69-11.5-8.39-4.68-1.82-10.79-2.73-18.33-2.73h-11.31v49.72h-28.08Z"/><g class="cls-4"><path class="cls-2" d="M1484.76,79.83c0-2.02-1.65-3.67-3.67-3.67h-35.98l33.96-9.17c1.96-.53,3.12-2.55,2.59-4.5-.53-1.96-2.55-3.12-4.5-2.59l-32.02,8.64,28.78-16.61c1.76-1.01,2.34-3.27,1.33-5.01-1-1.76-3.26-2.37-5-1.34l-29.68,17.14,24.72-24.72c1.43-1.43,1.43-3.76,0-5.19-1.43-1.43-3.76-1.43-5.19,0l-24.72,24.72,17.47-30.28c1.01-1.76.4-4-1.34-5.01-1.76-1.03-4-.4-5.01,1.34l-17.21,29.82,8.53-33.16c.51-1.96-.68-3.96-2.64-4.48-1.96-.51-3.96.68-4.46,2.64l-8.77,34.11V17c0-2.02-1.65-3.67-3.67-3.67s-3.67,1.65-3.67,3.67v35.51l-9.4-34.24c-.53-1.96-2.57-3.1-4.51-2.57-1.96.53-3.1,2.55-2.57,4.51l9.07,33.16-17.18-29.78c-1.01-1.76-3.27-2.37-5.01-1.34-1.76,1.01-2.35,3.27-1.34,5.01l17.47,30.28-24.72-24.72c-1.43-1.43-3.76-1.43-5.19,0-1.43,1.43-1.43,3.76,0,5.19l24.72,24.72-30.26-17.49c-1.76-1.01-4-.4-5.01,1.34-1.01,1.76-.41,4,1.34,5.01l31.47,18.17-35.23-8.92c-1.97-.5-3.97.7-4.46,2.66-.5,1.96.69,3.96,2.66,4.46l32.39,8.2h-33.42c-2.02,0-3.67,1.65-3.67,3.67s1.65,3.67,3.67,3.67h34.39l-33.97,9.17c-1.96.53-3.12,2.55-2.59,4.5.45,1.63,1.93,2.72,3.55,2.72.31,0,.64-.04.95-.13l35.01-9.47-31.36,18.11c-1.76,1.01-2.35,3.27-1.34,5.01.68,1.17,1.91,1.83,3.18,1.83.62,0,1.24-.17,1.83-.5l30.87-17.82-24.72,24.72c-1.43,1.43-1.43,3.76,0,5.19.71.72,1.65,1.08,2.59,1.08s1.87-.37,2.58-1.08l24.72-24.72-17.47,30.28c-1.01,1.76-.4,4,1.34,5.01.59.33,1.21.49,1.84.49,1.26,0,2.49-.66,3.17-1.83l18.77-32.52-9.39,36.55c-.52,1.96.68,3.96,2.64,4.46.31.07.61.11.92.11,1.63,0,3.12-1.1,3.56-2.75l8.09-31.41v32.15c0,2.02,1.65,3.67,3.67,3.67s3.67-1.65,3.67-3.67v-35.51l9.36,34.24c.44,1.63,1.93,2.7,3.54,2.7.31,0,.64-.04.97-.13,1.97-.53,3.1-2.55,2.57-4.51l-9.06-33.16,17.19,29.78c.68,1.18,1.91,1.83,3.18,1.83.62,0,1.24-.16,1.83-.49,1.76-1.01,2.35-3.27,1.34-5.01l-17.47-30.28,24.72,24.72c.71.72,1.65,1.08,2.59,1.08s1.87-.37,2.58-1.08c1.43-1.43,1.43-3.76,0-5.19l-24.71-24.72,30.27,17.47c.59.33,1.21.5,1.84.5,1.26,0,2.49-.66,3.17-1.83,1.01-1.76.41-4-1.34-5.01l-31.47-18.17,35.22,8.94c.31.07.6.11.89.11,1.64,0,3.14-1.1,3.56-2.77.5-1.96-.69-3.96-2.66-4.46l-32.38-8.2h33.41c2.02,0,3.67-1.65,3.67-3.67h.02ZM1428.7,66.28c2.15,0,3.89,1.74,3.89,3.89s-1.74,3.89-3.89,3.89-3.89-1.74-3.89-3.89,1.74-3.89,3.89-3.89ZM1408,66.28c2.15,0,3.89,1.74,3.89,3.89s-1.74,3.89-3.89,3.89-3.89-1.74-3.89-3.89,1.75-3.89,3.89-3.89ZM1435.7,85.42c-3.06,4.83-9.91,7.93-17.45,7.93s-14.38-3.12-17.45-7.93c-.79-1.23-.42-2.84.81-3.63,1.23-.79,2.86-.42,3.63.81,2.09,3.28,7.32,5.49,13.01,5.49s10.92-2.2,13.01-5.49c.77-1.23,2.41-1.6,3.63-.81,1.23.79,1.6,2.4.81,3.63Z"/></g></svg>