<?xml version="1.0" encoding="UTF-8"?><svg id="Layer_1" xmlns="http://www.w3.org/2000/svg" width="8.47mm" height="8.47mm" viewBox="0 0 24 24"><defs><style>.cls-1,.cls-2{fill:#f7f1e5;}.cls-2{fill-rule:evenodd;}</style></defs><path class="cls-1" d="M18.4,7.02c-.79,0-1.44-.64-1.44-1.44,0-.79.64-1.44,1.44-1.44.79,0,1.44.64,1.44,1.44,0,.79-.64,1.44-1.44,1.44Z"/><path class="cls-2" d="M12.01,18.16c-3.4,0-6.17-2.75-6.17-6.15,0-3.4,2.75-6.17,6.15-6.17,3.4,0,6.17,2.75,6.17,6.15,0,3.4-2.75,6.17-6.15,6.17ZM11.99,8c-2.21,0-4,1.8-3.99,4.01,0,2.21,1.8,4,4.01,3.99,2.21,0,4-1.8,3.99-4.01,0-2.21-1.8-4-4.01-3.99Z"/><path class="cls-2" d="M4.12.65c.76-.3,1.63-.5,2.91-.56C8.31.02,8.72,0,11.98,0c3.26,0,3.67,0,4.95.06,1.28.06,2.15.26,2.91.55.79.3,1.46.71,2.13,1.38.67.67,1.08,1.33,1.39,2.12.3.76.5,1.63.56,2.91.06,1.28.08,1.69.08,4.95,0,3.26,0,3.67-.06,4.95-.06,1.28-.26,2.15-.55,2.91-.31.79-.71,1.46-1.38,2.13-.67.67-1.33,1.08-2.12,1.39-.76.3-1.63.5-2.91.56-1.28.06-1.69.08-4.95.08-3.26,0-3.67,0-4.95-.06-1.28-.06-2.15-.26-2.91-.55-.79-.31-1.46-.71-2.13-1.38-.67-.67-1.08-1.33-1.39-2.12-.3-.76-.5-1.63-.56-2.91C.02,15.69,0,15.28,0,12.02c0-3.26,0-3.67.06-4.95.06-1.28.26-2.15.55-2.91.31-.79.71-1.46,1.38-2.13.67-.67,1.33-1.08,2.12-1.39ZM4.94,21.37c.42.16,1.06.36,2.23.41,1.27.05,1.65.07,4.85.06,3.2,0,3.58-.02,4.85-.08,1.17-.06,1.8-.25,2.23-.42.56-.22.96-.48,1.38-.9.42-.42.68-.82.9-1.38.16-.42.36-1.06.41-2.23.06-1.27.07-1.64.06-4.85,0-3.2-.02-3.58-.08-4.85-.06-1.17-.25-1.8-.42-2.23-.22-.56-.48-.96-.9-1.38-.42-.42-.82-.68-1.38-.9-.42-.16-1.06-.36-2.23-.41-1.27-.06-1.65-.07-4.85-.06-3.2,0-3.58.02-4.85.08-1.17.06-1.8.25-2.23.42-.56.22-.96.48-1.38.9-.42.42-.68.82-.9,1.38-.16.42-.36,1.06-.41,2.23-.06,1.27-.07,1.65-.06,4.85,0,3.2.02,3.58.08,4.85.05,1.17.25,1.8.42,2.23.22.56.48.96.9,1.38.42.42.82.68,1.38.9Z"/></svg>