<?xml version="1.0" encoding="utf-8"?>
<!-- Generator: Adobe Illustrator 20.1.0, SVG Export Plug-In . SVG Version: 6.00 Build 0)  -->
<svg version="1.1" id="Layer_1" xmlns="http://www.w3.org/2000/svg" xmlns:xlink="http://www.w3.org/1999/xlink" x="0px" y="0px"
	  enable-background="new 0 0 156 50" xml:space="preserve">
<g>
	<g>
		<g>
			<g>
				<path fill="#f7f1e5" d="M47,41l-4.3-4.3l-1.2,1.2c-4.2,4.2-9.7,6.5-15.6,6.5c-5.9,0-11.5-2.3-15.6-6.5
					c-4.2-4.2-6.5-9.7-6.5-15.6c0-5.9,2.3-11.5,6.5-15.6l1.2-1.2L7.4,1.3C7,1,6.6,0.8,6.1,0.8C5.7,0.8,5.2,1,4.9,1.3
					C4.6,1.6,4.4,2.1,4.4,2.5s0.2,0.9,0.5,1.2l1.7,1.7c-2,2.3-3.5,4.8-4.6,7.6c-1.1,2.9-1.7,6.1-1.7,9.3c0,6.8,2.7,13.3,7.5,18.1
					c4.8,4.8,11.2,7.5,18.1,7.5c3.2,0,6.3-0.6,9.3-1.7c2.8-1.1,5.3-2.6,7.6-4.6l1.9,1.9c0.7,0.7,1.8,0.7,2.4,0
					C47.7,42.8,47.7,41.7,47,41z"/>
				<path fill="#f7f1e5" d="M8.2,22.2c0,2.4,0.5,4.7,1.4,6.9c0.9,2.1,2.2,4,3.8,5.6c1.6,1.6,3.5,2.9,5.6,3.8
					c2.2,0.9,4.5,1.4,6.9,1.4s4.7-0.5,6.9-1.4c2.1-0.9,4-2.2,5.6-3.8c1.6-1.6,2.9-3.5,3.8-5.6c0.9-2.2,1.4-4.5,1.4-6.9
					s-0.5-4.7-1.4-6.9c-0.9-2.1-2.2-4-3.8-5.6c-1.6-1.6-3.5-2.9-5.6-3.8c-2.2-0.9-4.5-1.4-6.9-1.4S21.2,5.1,19,6
					c-2.1,0.9-4,2.2-5.6,3.8c-1.6,1.6-2.9,3.5-3.8,5.6C8.7,17.5,8.2,19.9,8.2,22.2z M15.9,12.3c2.7-2.7,6.2-4.1,9.9-4.1
					s7.3,1.5,9.9,4.1c2.7,2.7,4.1,6.2,4.1,9.9s-1.5,7.3-4.1,9.9c-2.7,2.7-6.2,4.1-9.9,4.1s-7.3-1.5-9.9-4.1
					c-2.7-2.7-4.1-6.2-4.1-9.9S13.3,15,15.9,12.3z"/>
			</g>
		</g>
	</g>
	<g>
		<path fill="#f7f1e5" d="M59.2,12.5c0,0.7,0.5,1,1.1,1s1-0.3,1-1V5.1c0-0.3,0.1-0.5,0.5-0.5h1.7c0.3,0,0.5,0.1,0.5,0.5v7.8
			c0,1.4-0.8,2.8-3.6,2.8s-3.7-1.4-3.7-2.8v-1.1c0-0.3,0.1-0.5,0.5-0.5h1.7c0.3,0,0.5,0.1,0.5,0.5V12.5z"/>
		<path fill="#f7f1e5" d="M69.1,8.3c0.1,0.4,0.3,0.9,0.3,1c0-0.1,0.2-0.6,0.3-1L71,5.1c0.1-0.3,0.2-0.5,0.6-0.5h1.7
			c0.3,0,0.5,0.2,0.4,0.5l-3,6.4v3.6c0,0.3-0.1,0.5-0.5,0.5h-1.7c-0.3,0-0.5-0.1-0.5-0.5v-3.3l-3-6.7c-0.1-0.3,0-0.5,0.3-0.5h2
			c0.3,0,0.5,0.2,0.6,0.5L69.1,8.3z"/>
		<path fill="#f7f1e5" d="M79.5,7.6c0-0.7-0.5-1-1.3-1c-0.7,0-1.3,0.3-1.3,1v0.2c0,0.4,0.3,0.6,0.5,0.7l2.7,0.9c1.2,0.4,2,1.2,2,2.4
			v1.1c0,1.4-1,2.8-4,2.8s-4-1.4-4-2.8v-1.1c0-0.3,0.1-0.5,0.5-0.5h1.7c0.3,0,0.5,0.1,0.5,0.5v0.7c0,0.7,0.6,1,1.4,1
			c0.8,0,1.4-0.3,1.4-1v-0.3c0-0.6-0.8-0.9-1.4-1.1l-2.3-0.9c-0.8-0.3-1.5-1.2-1.5-2.1V7.2c0-1.4,0.8-2.8,3.8-2.8
			c3,0,3.9,1.4,3.9,2.8v0.6c0,0.3-0.1,0.5-0.5,0.5H80c-0.3,0-0.5-0.1-0.5-0.5V7.6z"/>
		<path fill="#f7f1e5" d="M92.3,15.1c0.2,0.2,0.1,0.5-0.2,0.5h-2.2c-0.3,0-0.5-0.2-0.7-0.5l-2.5-3.9h-0.2v3.9c0,0.3-0.1,0.5-0.5,0.5
			h-1.7c-0.3,0-0.5-0.1-0.5-0.5v-10c0-0.3,0.1-0.5,0.5-0.5H86c0.3,0,0.5,0.1,0.5,0.5v4.1h0.2l2.5-4.1c0.2-0.3,0.4-0.5,0.8-0.5h1.9
			c0.3,0,0.4,0.2,0.2,0.5L88.8,10L92.3,15.1z"/>
		<path fill="#f7f1e5" d="M63.8,25.1l1.6,4c0.1,0.3-0.1,0.5-0.5,0.5h-1.7c-0.3,0-0.4-0.3-0.5-0.5l-1.4-3.6h-1.2v3.6
			c0,0.3-0.1,0.5-0.5,0.5h-1.7c-0.3,0-0.5-0.1-0.5-0.5v-10c0-0.3,0.1-0.5,0.5-0.5h3.5c3,0,4.1,1.4,4.1,2.8v1.4
			C65.5,23.7,65,24.6,63.8,25.1z M60.1,20.8v2.6h1.3c0.8,0,1.5-0.3,1.5-1v-0.5c0-0.7-0.7-1-1.5-1H60.1z"/>
		<path fill="#f7f1e5" d="M67.6,29.6c-0.3,0-0.5-0.1-0.5-0.5v-10c0-0.3,0.1-0.5,0.5-0.5h5.5c0.3,0,0.5,0.1,0.5,0.5v1.3
			c0,0.3-0.1,0.5-0.5,0.5h-3.3v2.1h3.1c0.3,0,0.5,0.1,0.5,0.5v1.2c0,0.3-0.1,0.5-0.5,0.5h-3.1v2.4h3.5c0.3,0,0.5,0.1,0.5,0.5v1.3
			c0,0.3-0.1,0.5-0.5,0.5H67.6z"/>
		<path fill="#f7f1e5" d="M77.1,26.5c0,0.7,0.5,1,1.1,1c0.7,0,1-0.3,1-1v-7.4c0-0.3,0.1-0.5,0.5-0.5h1.7c0.3,0,0.5,0.1,0.5,0.5V27
			c0,1.4-0.8,2.8-3.6,2.8c-2.8,0-3.7-1.4-3.7-2.8v-1.1c0-0.3,0.1-0.5,0.5-0.5h1.7c0.3,0,0.5,0.1,0.5,0.5V26.5z"/>
		<path fill="#f7f1e5" d="M88.7,21.6c0-0.7-0.5-1-1.3-1c-0.7,0-1.3,0.3-1.3,1v0.2c0,0.4,0.3,0.6,0.5,0.7l2.7,0.9
			c1.2,0.4,2,1.2,2,2.4V27c0,1.4-1,2.8-4,2.8c-3,0-4-1.4-4-2.8v-1.1c0-0.3,0.1-0.5,0.5-0.5h1.7c0.3,0,0.5,0.1,0.5,0.5v0.7
			c0,0.7,0.6,1,1.4,1c0.8,0,1.4-0.3,1.4-1v-0.3c0-0.6-0.8-0.9-1.4-1.1l-2.3-0.9c-0.8-0.3-1.5-1.2-1.5-2.1v-0.9
			c0-1.4,0.8-2.8,3.8-2.8c3,0,3.9,1.4,3.9,2.8v0.6c0,0.3-0.1,0.5-0.5,0.5h-1.7c-0.3,0-0.5-0.1-0.5-0.5V21.6z"/>
		<path fill="#f7f1e5" d="M93.4,29.6c-0.3,0-0.5-0.1-0.5-0.5v-10c0-0.3,0.1-0.5,0.5-0.5H99c0.3,0,0.5,0.1,0.5,0.5v1.3
			c0,0.3-0.1,0.5-0.5,0.5h-3.3v2.1h3.1c0.3,0,0.5,0.1,0.5,0.5v1.2c0,0.3-0.1,0.5-0.5,0.5h-3.1v2.4h3.5c0.3,0,0.5,0.1,0.5,0.5v1.3
			c0,0.3-0.1,0.5-0.5,0.5H93.4z"/>
		<path fill="#f7f1e5" d="M101.6,29.6c-0.3,0-0.5-0.1-0.5-0.5v-10c0-0.3,0.1-0.5,0.5-0.5h3c3,0,4.1,1.1,4.1,2.5V22
			c0,0.8-0.4,1.4-1.1,1.8c1,0.4,1.6,1.1,1.6,1.9v1.2c0,1.4-1.1,2.6-4.1,2.6H101.6z M103.8,20.7V23h0.8c0.8,0,1.5-0.3,1.5-1.1v-0.4
			c0-0.7-0.7-0.8-1.5-0.8H103.8z M103.8,25v2.5h1.4c0.8,0,1.5-0.3,1.5-1v-0.5c0-0.6-0.7-0.9-1.5-0.9H103.8z"/>
		<path fill="#f7f1e5" d="M113.3,26.5c0,0.7,0.7,1,1.4,1c0.8,0,1.5-0.3,1.5-1v-7.4c0-0.3,0.1-0.5,0.5-0.5h1.7c0.3,0,0.5,0.1,0.5,0.5
			V27c0,1.4-1.1,2.8-4.1,2.8s-4.1-1.4-4.1-2.8v-7.8c0-0.3,0.1-0.5,0.5-0.5h1.7c0.3,0,0.5,0.1,0.5,0.5V26.5z"/>
		<path fill="#f7f1e5" d="M127.1,25.1l1.6,4c0.1,0.3-0.1,0.5-0.5,0.5h-1.7c-0.3,0-0.4-0.3-0.5-0.5l-1.4-3.6h-1.2v3.6
			c0,0.3-0.1,0.5-0.5,0.5h-1.7c-0.3,0-0.5-0.1-0.5-0.5v-10c0-0.3,0.1-0.5,0.5-0.5h3.5c3,0,4.1,1.4,4.1,2.8v1.4
			C128.8,23.7,128.3,24.6,127.1,25.1z M123.4,20.8v2.6h1.3c0.8,0,1.5-0.3,1.5-1v-0.5c0-0.7-0.7-1-1.5-1H123.4z"/>
		<path fill="#f7f1e5" d="M131,29.6c-0.3,0-0.5-0.1-0.5-0.5v-10c0-0.3,0.1-0.5,0.5-0.5h5.5c0.3,0,0.5,0.1,0.5,0.5v1.3
			c0,0.3-0.1,0.5-0.5,0.5h-3.3v2.1h3.1c0.3,0,0.5,0.1,0.5,0.5v1.2c0,0.3-0.1,0.5-0.5,0.5h-3.1v2.4h3.5c0.3,0,0.5,0.1,0.5,0.5v1.3
			c0,0.3-0.1,0.5-0.5,0.5H131z"/>
		<path fill="#f7f1e5" d="M143.7,19.1l2.9,10c0.1,0.3,0,0.5-0.4,0.5h-1.8c-0.3,0-0.5-0.2-0.6-0.5l-0.4-1.5h-2.7l-0.4,1.5
			c-0.1,0.3-0.2,0.5-0.6,0.5h-1.6c-0.3,0-0.5-0.2-0.4-0.5l2.9-10c0.1-0.3,0.3-0.5,0.6-0.5h1.7C143.4,18.6,143.6,18.8,143.7,19.1z
			 M142.7,24.6c-0.3-1-0.5-3.2-0.5-3.4c0,0.2-0.3,2.4-0.5,3.4l-0.2,0.9h1.5L142.7,24.6z"/>
		<path fill="#f7f1e5" d="M150.2,26.5c0,0.7,0.7,1,1.4,1s1.5-0.3,1.5-1v-7.4c0-0.3,0.1-0.5,0.5-0.5h1.7c0.3,0,0.5,0.1,0.5,0.5V27
			c0,1.4-1.1,2.8-4.1,2.8s-4.1-1.4-4.1-2.8v-7.8c0-0.3,0.1-0.5,0.5-0.5h1.7c0.3,0,0.5,0.1,0.5,0.5V26.5z"/>
		<path fill="#f7f1e5" d="M63.7,44.4c0,0.2-0.1,0.3-0.3,0.3h-0.9c-0.2,0-0.3-0.1-0.3-0.3v-4.1c0,0-0.2,0.7-0.3,1l-0.8,2
			c-0.1,0.2-0.2,0.3-0.4,0.3h-0.8c-0.2,0-0.3-0.1-0.3-0.3l-0.9-2.2c-0.1-0.2-0.2-0.7-0.2-0.8v4.1c0,0.2-0.1,0.3-0.3,0.3h-0.8
			c-0.2,0-0.3-0.1-0.3-0.3v-6.8c0-0.2,0.1-0.3,0.3-0.3h0.8c0.1,0,0.2,0.1,0.2,0.2l1.6,3.7c0.1,0.3,0.3,0.8,0.3,0.8s0.1-0.4,0.3-0.7
			l1.6-3.8c0-0.1,0.1-0.1,0.2-0.1h0.9c0.2,0,0.3,0.1,0.3,0.3V44.4z"/>
		<path fill="#f7f1e5" d="M72.6,37.4c0.2,0,0.3,0.1,0.3,0.3v0.7c0,0.2-0.1,0.3-0.3,0.3h-2.5v1.8h2.3c0.2,0,0.3,0.1,0.3,0.3v0.6
			c0,0.2-0.1,0.3-0.3,0.3h-2.3v2h2.6c0.2,0,0.3,0.1,0.3,0.2v0.7c0,0.2-0.1,0.3-0.3,0.3H69c-0.2,0-0.3-0.1-0.3-0.3v-1.3h-2L66,44.4
			c-0.1,0.1-0.2,0.3-0.3,0.3h-0.9c-0.2,0-0.3-0.1-0.2-0.3l4-6.8c0.1-0.1,0.2-0.3,0.4-0.3H72.6z M67.5,42h1.3v-2.3
			c-0.1,0.3-0.3,0.5-0.4,0.7L67.5,42z"/>
		<path fill="#f7f1e5" d="M75.6,41.9v2.5c0,0.2-0.1,0.3-0.3,0.3h-0.9c-0.2,0-0.3-0.1-0.3-0.3v-6.7c0-0.2,0.1-0.3,0.3-0.3h2.3
			c1.9,0,2.6,0.8,2.6,1.7v1c0,0.6-0.3,1.2-1.2,1.5l1.2,2.7c0.1,0.2-0.1,0.3-0.2,0.3h-0.9c-0.2,0-0.2-0.1-0.3-0.3l-1.1-2.5h-0.1H75.6
			z M75.6,38.6v2.1h1.1c0.7,0,1.2-0.3,1.2-0.8v-0.5c0-0.5-0.4-0.8-1.2-0.8H75.6z"/>
		<path fill="#f7f1e5" d="M86,44.4c0.1,0.1,0.1,0.3-0.1,0.3h-1.2c-0.2,0-0.3-0.1-0.4-0.3l-2-2.8h-0.2v2.8c0,0.2-0.1,0.3-0.3,0.3
			h-0.9c-0.2,0-0.3-0.1-0.3-0.3v-6.8c0-0.2,0.1-0.3,0.3-0.3h0.9c0.2,0,0.3,0.1,0.3,0.3v2.9h0.2l1.9-2.9c0.1-0.2,0.2-0.3,0.4-0.3h1
			c0.2,0,0.2,0.1,0.1,0.3L83.5,41L86,44.4z"/>
		<path fill="#f7f1e5" d="M90.7,44.7c-0.2,0-0.3-0.1-0.3-0.3l-2-6.8c-0.1-0.2,0-0.3,0.2-0.3h1c0.2,0,0.3,0.1,0.3,0.3l1,3.6
			c0.2,0.6,0.3,1.6,0.3,1.6s0.1-1,0.3-1.5l1-3.7c0.1-0.2,0.1-0.3,0.3-0.3h0.9c0.2,0,0.2,0.1,0.2,0.3l-2,6.8
			c-0.1,0.2-0.2,0.3-0.3,0.3H90.7z"/>
		<path fill="#f7f1e5" d="M95.2,44.7c-0.2,0-0.3-0.1-0.3-0.3v-6.7c0-0.2,0.1-0.3,0.3-0.3h3.7c0.2,0,0.3,0.1,0.3,0.3v0.7
			c0,0.2-0.1,0.3-0.3,0.3h-2.5v1.7h2.3c0.2,0,0.3,0.1,0.3,0.3v0.6c0,0.2-0.1,0.3-0.3,0.3h-2.3v2h2.6c0.2,0,0.3,0.1,0.3,0.3v0.7
			c0,0.2-0.1,0.3-0.3,0.3H95.2z"/>
		<path fill="#f7f1e5" d="M101.9,41.9v2.5c0,0.2-0.1,0.3-0.3,0.3h-0.9c-0.2,0-0.3-0.1-0.3-0.3v-6.7c0-0.2,0.1-0.3,0.3-0.3h2.3
			c1.9,0,2.6,0.8,2.6,1.7v1c0,0.6-0.3,1.2-1.2,1.5l1.2,2.7c0.1,0.2-0.1,0.3-0.2,0.3h-0.9c-0.2,0-0.2-0.1-0.3-0.3l-1.1-2.5h-0.1
			H101.9z M101.9,38.6v2.1h1.1c0.7,0,1.2-0.3,1.2-0.8v-0.5c0-0.5-0.4-0.8-1.2-0.8H101.9z"/>
		<path fill="#f7f1e5" d="M107.1,44.7c-0.2,0-0.2-0.1-0.2-0.3v-6.7c0-0.2,0.1-0.3,0.3-0.3h2.3c1.9,0,2.6,0.8,2.6,1.7v3.8
			c0,0.9-0.7,1.7-2.6,1.7H107.1z M108.3,38.6v4.9h1.1c0.7,0,1.2-0.3,1.2-0.8v-3.3c0-0.5-0.4-0.8-1.2-0.8H108.3z"/>
		<path fill="#f7f1e5" d="M113.7,44.7c-0.2,0-0.3-0.1-0.3-0.3v-6.7c0-0.2,0.1-0.3,0.3-0.3h3.7c0.2,0,0.3,0.1,0.3,0.3v0.7
			c0,0.2-0.1,0.3-0.3,0.3h-2.5v1.7h2.3c0.2,0,0.3,0.1,0.3,0.3v0.6c0,0.2-0.1,0.3-0.3,0.3h-2.3v2h2.6c0.2,0,0.3,0.1,0.3,0.3v0.7
			c0,0.2-0.1,0.3-0.3,0.3H113.7z"/>
		<path fill="#f7f1e5" d="M124.2,44.4c0,0.2-0.1,0.3-0.3,0.3h-0.8c-0.1,0-0.2,0-0.2-0.1l-2.1-3.6c-0.3-0.5-0.4-0.8-0.4-0.9v4.3
			c0,0.2-0.1,0.3-0.3,0.3h-0.8c-0.2,0-0.3-0.1-0.3-0.3v-6.8c0-0.2,0.1-0.3,0.3-0.3h0.8c0.1,0,0.2,0,0.2,0.1l2.2,3.7
			c0.2,0.3,0.4,0.8,0.4,0.8v-4.3c0-0.2,0.1-0.3,0.3-0.3h0.8c0.2,0,0.3,0.1,0.3,0.3V44.4z"/>
	</g>
</g>
</svg>
