<?xml version="1.0" encoding="UTF-8"?><svg id="Layer_1" xmlns="http://www.w3.org/2000/svg" width="54.86mm" height="16.62mm" viewBox="0 0 155.5 47.1"><defs><style>.cls-1{fill:#F7F1E5;}</style></defs><path class="cls-1" d="M46.7,40.2l-4.3-4.3-1.2,1.2c-4.2,4.2-9.7,6.5-15.6,6.5s-11.5-2.3-15.6-6.5c-4.2-4.2-6.5-9.7-6.5-15.6s2.3-11.5,6.5-15.6l1.2-1.2L7.1.5c-.4-.3-.8-.5-1.3-.5-.4,0-.9.2-1.2.5-.3.3-.5.8-.5,1.2s.2.9.5,1.2l1.7,1.7c-2,2.3-3.5,4.8-4.6,7.6-1.1,2.9-1.7,6.1-1.7,9.3,0,6.8,2.7,13.3,7.5,18.1,4.8,4.8,11.2,7.5,18.1,7.5,3.2,0,6.3-.6,9.3-1.7,2.8-1.1,5.3-2.6,7.6-4.6l1.9,1.9c.7.7,1.8.7,2.4,0,.6-.7.6-1.8-.1-2.5Z"/><path class="cls-1" d="M7.9,21.4c0,2.4.5,4.7,1.4,6.9.9,2.1,2.2,4,3.8,5.6,1.6,1.6,3.5,2.9,5.6,3.8,2.2.9,4.5,1.4,6.9,1.4s4.7-.5,6.9-1.4c2.1-.9,4-2.2,5.6-3.8s2.9-3.5,3.8-5.6c.9-2.2,1.4-4.5,1.4-6.9s-.5-4.7-1.4-6.9c-.9-2.1-2.2-4-3.8-5.6s-3.5-2.9-5.6-3.8c-2.2-.9-4.5-1.4-6.9-1.4s-4.7.6-6.9,1.5c-2.1.9-4,2.2-5.6,3.8s-2.9,3.5-3.8,5.6c-.9,2.1-1.4,4.5-1.4,6.8ZM15.6,11.5c2.7-2.7,6.2-4.1,9.9-4.1s7.3,1.5,9.9,4.1c2.7,2.7,4.1,6.2,4.1,9.9s-1.5,7.3-4.1,9.9-6.2,4.1-9.9,4.1-7.3-1.5-9.9-4.1c-2.7-2.7-4.1-6.2-4.1-9.9s1.5-7.2,4.1-9.9Z"/><path class="cls-1" d="M58.9,11.7c0,.7.5,1,1.1,1s1-.3,1-1v-7.4c0-.3.1-.5.5-.5h1.7c.3,0,.5.1.5.5v7.8c0,1.4-.8,2.8-3.6,2.8s-3.7-1.4-3.7-2.8v-1.1c0-.3.1-.5.5-.5h1.7c.3,0,.5.1.5.5v.7h-.2Z"/><path class="cls-1" d="M68.8,7.5c.1.4.3.9.3,1,0-.1.2-.6.3-1l1.3-3.2c.1-.3.2-.5.6-.5h1.7c.3,0,.5.2.4.5l-3,6.4v3.6c0,.3-.1.5-.5.5h-1.7c-.3,0-.5-.1-.5-.5v-3.3l-3-6.7c-.1-.3,0-.5.3-.5h2c.3,0,.5.2.6.5l1.2,3.2Z"/><path class="cls-1" d="M79.2,6.8c0-.7-.5-1-1.3-1-.7,0-1.3.3-1.3,1v.2c0,.4.3.6.5.7l2.7.9c1.2.4,2,1.2,2,2.4v1.1c0,1.4-1,2.8-4,2.8s-4-1.4-4-2.8v-1.1c0-.3.1-.5.5-.5h1.7c.3,0,.5.1.5.5v.7c0,.7.6,1,1.4,1s1.4-.3,1.4-1v-.3c0-.6-.8-.9-1.4-1.1l-2.3-.9c-.8-.3-1.5-1.2-1.5-2.1v-.9c0-1.4.8-2.8,3.8-2.8s3.9,1.4,3.9,2.8v.6c0,.3-.1.5-.5.5h-1.6c-.3,0-.5-.1-.5-.5v-.2Z"/><path class="cls-1" d="M92,14.3c.2.2.1.5-.2.5h-2.2c-.3,0-.5-.2-.7-.5l-2.5-3.9h-.2v3.9c0,.3-.1.5-.5.5h-1.7c-.3,0-.5-.1-.5-.5V4.3c0-.3.1-.5.5-.5h1.7c.3,0,.5.1.5.5v4.1h.2l2.5-4.1c.2-.3.4-.5.8-.5h1.9c.3,0,.4.2.2.5l-3.3,4.9,3.5,5.1Z"/><path class="cls-1" d="M63.5,24.3l1.6,4c.1.3-.1.5-.5.5h-1.7c-.3,0-.4-.3-.5-.5l-1.4-3.6h-1.2v3.6c0,.3-.1.5-.5.5h-1.7c-.3,0-.5-.1-.5-.5v-10c0-.3.1-.5.5-.5h3.5c3,0,4.1,1.4,4.1,2.8v1.4c0,.9-.5,1.8-1.7,2.3ZM59.8,20v2.6h1.3c.8,0,1.5-.3,1.5-1v-.5c0-.7-.7-1-1.5-1h-1.3v-.1Z"/><path class="cls-1" d="M67.3,28.8c-.3,0-.5-.1-.5-.5v-10c0-.3.1-.5.5-.5h5.5c.3,0,.5.1.5.5v1.3c0,.3-.1.5-.5.5h-3.3v2.1h3.1c.3,0,.5.1.5.5v1.2c0,.3-.1.5-.5.5h-3.1v2.4h3.5c.3,0,.5.1.5.5v1.3c0,.3-.1.5-.5.5h-5.7v-.3Z"/><path class="cls-1" d="M76.8,25.7c0,.7.5,1,1.1,1,.7,0,1-.3,1-1v-7.4c0-.3.1-.5.5-.5h1.7c.3,0,.5.1.5.5v7.9c0,1.4-.8,2.8-3.6,2.8s-3.7-1.4-3.7-2.8v-1.1c0-.3.1-.5.5-.5h1.7c.3,0,.5.1.5.5v.6h-.2Z"/><path class="cls-1" d="M88.4,20.8c0-.7-.5-1-1.3-1-.7,0-1.3.3-1.3,1v.2c0,.4.3.6.5.7l2.7.9c1.2.4,2,1.2,2,2.4v1.2c0,1.4-1,2.8-4,2.8s-4-1.4-4-2.8v-1.1c0-.3.1-.5.5-.5h1.7c.3,0,.5.1.5.5v.7c0,.7.6,1,1.4,1s1.4-.3,1.4-1v-.3c0-.6-.8-.9-1.4-1.1l-2.3-.9c-.8-.3-1.5-1.2-1.5-2.1v-.9c0-1.4.8-2.8,3.8-2.8s3.9,1.4,3.9,2.8v.6c0,.3-.1.5-.5.5h-1.7c-.3,0-.5-.1-.5-.5v-.3h.1Z"/><path class="cls-1" d="M93.1,28.8c-.3,0-.5-.1-.5-.5v-10c0-.3.1-.5.5-.5h5.6c.3,0,.5.1.5.5v1.3c0,.3-.1.5-.5.5h-3.3v2.1h3.1c.3,0,.5.1.5.5v1.2c0,.3-.1.5-.5.5h-3.1v2.4h3.5c.3,0,.5.1.5.5v1.3c0,.3-.1.5-.5.5h-5.8v-.3Z"/><path class="cls-1" d="M101.3,28.8c-.3,0-.5-.1-.5-.5v-10c0-.3.1-.5.5-.5h3c3,0,4.1,1.1,4.1,2.5v.9c0,.8-.4,1.4-1.1,1.8,1,.4,1.6,1.1,1.6,1.9v1.2c0,1.4-1.1,2.6-4.1,2.6h-3.5v.1ZM103.5,19.9v2.3h.8c.8,0,1.5-.3,1.5-1.1v-.4c0-.7-.7-.8-1.5-.8h-.8ZM103.5,24.2v2.5h1.4c.8,0,1.5-.3,1.5-1v-.5c0-.6-.7-.9-1.5-.9h-1.4v-.1Z"/><path class="cls-1" d="M113,25.7c0,.7.7,1,1.4,1,.8,0,1.5-.3,1.5-1v-7.4c0-.3.1-.5.5-.5h1.7c.3,0,.5.1.5.5v7.9c0,1.4-1.1,2.8-4.1,2.8s-4.1-1.4-4.1-2.8v-7.8c0-.3.1-.5.5-.5h1.7c.3,0,.5.1.5.5v7.3h-.1Z"/><path class="cls-1" d="M126.8,24.3l1.6,4c.1.3-.1.5-.5.5h-1.7c-.3,0-.4-.3-.5-.5l-1.4-3.6h-1.2v3.6c0,.3-.1.5-.5.5h-1.7c-.3,0-.5-.1-.5-.5v-10c0-.3.1-.5.5-.5h3.5c3,0,4.1,1.4,4.1,2.8v1.4c0,.9-.5,1.8-1.7,2.3ZM123.1,20v2.6h1.3c.8,0,1.5-.3,1.5-1v-.5c0-.7-.7-1-1.5-1h-1.3v-.1Z"/><path class="cls-1" d="M130.7,28.8c-.3,0-.5-.1-.5-.5v-10c0-.3.1-.5.5-.5h5.5c.3,0,.5.1.5.5v1.3c0,.3-.1.5-.5.5h-3.3v2.1h3.1c.3,0,.5.1.5.5v1.2c0,.3-.1.5-.5.5h-3.1v2.4h3.5c.3,0,.5.1.5.5v1.3c0,.3-.1.5-.5.5h-5.7v-.3Z"/><path class="cls-1" d="M143.4,18.3l2.9,10c.1.3,0,.5-.4.5h-1.8c-.3,0-.5-.2-.6-.5l-.4-1.5h-2.7l-.4,1.5c-.1.3-.2.5-.6.5h-1.6c-.3,0-.5-.2-.4-.5l2.9-10c.1-.3.3-.5.6-.5h1.7c.5,0,.7.2.8.5ZM142.4,23.8c-.3-1-.5-3.2-.5-3.4,0,.2-.3,2.4-.5,3.4l-.2.9h1.5l-.3-.9Z"/><path class="cls-1" d="M149.9,25.7c0,.7.7,1,1.4,1s1.5-.3,1.5-1v-7.4c0-.3.1-.5.5-.5h1.7c.3,0,.5.1.5.5v7.9c0,1.4-1.1,2.8-4.1,2.8s-4.1-1.4-4.1-2.8v-7.8c0-.3.1-.5.5-.5h1.7c.3,0,.5.1.5.5v7.3h-.1Z"/><path class="cls-1" d="M63.4,43.6c0,.2-.1.3-.3.3h-.9c-.2,0-.3-.1-.3-.3v-4.1s-.2.7-.3,1l-.8,2c-.1.2-.2.3-.4.3h-.8c-.2,0-.3-.1-.3-.3l-.9-2.2c-.1-.2-.2-.7-.2-.8v4.1c0,.2-.1.3-.3.3h-.8c-.2,0-.3-.1-.3-.3v-6.8c0-.2.1-.3.3-.3h.8c.1,0,.2.1.2.2l1.6,3.7c.1.3.3.8.3.8,0,0,.1-.4.3-.7l1.6-3.8c0-.1.1-.1.2-.1h.9c.2,0,.3.1.3.3v6.7h.1Z"/><path class="cls-1" d="M72.3,36.6c.2,0,.3.1.3.3v.7c0,.2-.1.3-.3.3h-2.5v1.8h2.3c.2,0,.3.1.3.3v.6c0,.2-.1.3-.3.3h-2.3v2h2.6c.2,0,.3.1.3.2v.7c0,.2-.1.3-.3.3h-3.7c-.2,0-.3-.1-.3-.3v-1.3h-2l-.7,1.1c-.1.1-.2.3-.3.3h-.9c-.2,0-.3-.1-.2-.3l4-6.8c.1-.1.2-.3.4-.3h3.6v.1ZM67.2,41.2h1.3v-2.3c-.1.3-.3.5-.4.7l-.9,1.6Z"/><path class="cls-1" d="M75.3,41.1v2.5c0,.2-.1.3-.3.3h-.9c-.2,0-.3-.1-.3-.3v-6.7c0-.2.1-.3.3-.3h2.3c1.9,0,2.6.8,2.6,1.7v1c0,.6-.3,1.2-1.2,1.5l1.2,2.7c.1.2-.1.3-.2.3h-.9c-.2,0-.2-.1-.3-.3l-1.1-2.5h-1.2v.1ZM75.3,37.8v2.1h1.1c.7,0,1.2-.3,1.2-.8v-.5c0-.5-.4-.8-1.2-.8h-1.1Z"/><path class="cls-1" d="M85.7,43.6c.1.1.1.3-.1.3h-1.2c-.2,0-.3-.1-.4-.3l-2-2.8h-.2v2.8c0,.2-.1.3-.3.3h-.9c-.2,0-.3-.1-.3-.3v-6.8c0-.2.1-.3.3-.3h.9c.2,0,.3.1.3.3v2.9h.2l1.9-2.9c.1-.2.2-.3.4-.3h1c.2,0,.2.1.1.3l-2.2,3.4,2.5,3.4Z"/><path class="cls-1" d="M90.4,43.9c-.2,0-.3-.1-.3-.3l-2-6.8c-.1-.2,0-.3.2-.3h1c.2,0,.3.1.3.3l1,3.6c.2.6.3,1.6.3,1.6,0,0,.1-1,.3-1.5l1-3.7c.1-.2.1-.3.3-.3h.9c.2,0,.2.1.2.3l-2,6.8c-.1.2-.2.3-.3.3,0,0-.9,0-.9,0Z"/><path class="cls-1" d="M94.9,43.9c-.2,0-.3-.1-.3-.3v-6.7c0-.2.1-.3.3-.3h3.7c.2,0,.3.1.3.3v.7c0,.2-.1.3-.3.3h-2.5v1.7h2.3c.2,0,.3.1.3.3v.6c0,.2-.1.3-.3.3h-2.3v2h2.6c.2,0,.3.1.3.3v.7c0,.2-.1.3-.3.3h-3.8v-.2Z"/><path class="cls-1" d="M101.6,41.1v2.5c0,.2-.1.3-.3.3h-.9c-.2,0-.3-.1-.3-.3v-6.7c0-.2.1-.3.3-.3h2.3c1.9,0,2.6.8,2.6,1.7v1c0,.6-.3,1.2-1.2,1.5l1.2,2.7c.1.2-.1.3-.2.3h-.9c-.2,0-.2-.1-.3-.3l-1.1-2.5h-1.2v.1ZM101.6,37.8v2.1h1.1c.7,0,1.2-.3,1.2-.8v-.5c0-.5-.4-.8-1.2-.8h-1.1Z"/><path class="cls-1" d="M106.8,43.9c-.2,0-.2-.1-.2-.3v-6.7c0-.2.1-.3.3-.3h2.3c1.9,0,2.6.8,2.6,1.7v3.8c0,.9-.7,1.7-2.6,1.7h-2.4v.1ZM108,37.8v4.9h1.1c.7,0,1.2-.3,1.2-.8v-3.3c0-.5-.4-.8-1.2-.8,0,0-1.1,0-1.1,0Z"/><path class="cls-1" d="M113.4,43.9c-.2,0-.3-.1-.3-.3v-6.7c0-.2.1-.3.3-.3h3.7c.2,0,.3.1.3.3v.7c0,.2-.1.3-.3.3h-2.5v1.7h2.3c.2,0,.3.1.3.3v.6c0,.2-.1.3-.3.3h-2.3v2h2.6c.2,0,.3.1.3.3v.7c0,.2-.1.3-.3.3h-3.8v-.2Z"/><path class="cls-1" d="M123.9,43.6c0,.2-.1.3-.3.3h-.8c-.1,0-.2,0-.2-.1l-2.1-3.6c-.3-.5-.4-.8-.4-.9v4.3c0,.2-.1.3-.3.3h-.8c-.2,0-.3-.1-.3-.3v-6.8c0-.2.1-.3.3-.3h.8c.1,0,.2,0,.2.1l2.2,3.7c.2.3.4.8.4.8v-4.3c0-.2.1-.3.3-.3h.8c.2,0,.3.1.3.3v6.8h-.1Z"/></svg>