<?xml version="1.0" encoding="UTF-8"?><svg id="Layer_1" xmlns="http://www.w3.org/2000/svg" width="8.47mm" height="8.47mm" xmlns:xlink="http://www.w3.org/1999/xlink" viewBox="0 0 24 24"><defs><style>.cls-1{fill:#f7f1e5;}.cls-2{fill:none;}.cls-3{clip-path:url(#clippath);}</style><clipPath id="clippath"><rect class="cls-2" width="24" height="24"/></clipPath></defs><g class="cls-3"><path class="cls-1" d="M22.22,0H1.77C.79,0,0,.77,0,1.73v20.54c0,.96.79,1.73,1.77,1.73h20.45c.98,0,1.78-.78,1.78-1.73V1.73c0-.96-.8-1.73-1.78-1.73ZM7.12,20.45h-3.56v-11.46h3.56v11.46ZM5.34,7.43c-1.14,0-2.07-.92-2.07-2.06s.92-2.06,2.07-2.06,2.06.92,2.06,2.06-.92,2.06-2.06,2.06ZM20.45,20.45h-3.56v-5.57c0-1.33-.02-3.04-1.85-3.04s-2.13,1.45-2.13,2.94v5.66h-3.55v-11.46h3.41v1.57h.05c.47-.9,1.64-1.85,3.36-1.85,3.61,0,4.27,2.37,4.27,5.46v6.29Z"/></g></svg>