<?xml version="1.0" encoding="UTF-8"?>
<svg id="Layer_1" xmlns="http://www.w3.org/2000/svg" viewBox="0 0 36.24 36.24">
  <defs>
    <style>
      .cls-1 {
        fill: #f15b22;
      }
    </style>
  </defs>
  <path class="cls-1" d="M36.24,18.12c0-.55-.45-1-1-1h-9.8l9.25-2.5c.53-.14.85-.69.7-1.23-.14-.53-.69-.85-1.23-.7l-8.72,2.36,7.84-4.53c.48-.28.64-.89.37-1.37-.28-.48-.89-.64-1.37-.37l-8.09,4.67,6.73-6.73c.39-.39.39-1.02,0-1.41-.39-.39-1.02-.39-1.41,0l-6.73,6.73,4.76-8.25c.28-.48.11-1.09-.37-1.37-.48-.28-1.09-.11-1.37.37l-4.69,8.12,2.32-9.03c.14-.53-.18-1.08-.72-1.22-.54-.14-1.08.19-1.22.72l-2.39,9.29V1c0-.55-.45-1-1-1s-1,.45-1,1v9.67L14.57,1.34c-.15-.53-.7-.85-1.23-.7-.53.15-.85.7-.7,1.23l2.47,9.04L10.43,2.79c-.28-.48-.89-.64-1.37-.37-.48.28-.64.89-.37,1.37l4.76,8.25-6.73-6.73c-.39-.39-1.02-.39-1.41,0-.39.39-.39,1.02,0,1.41l6.73,6.73L3.79,8.69c-.48-.28-1.09-.11-1.37.37-.28.48-.11,1.09.37,1.37l8.58,4.95L1.77,12.94c-.53-.14-1.08.19-1.21.72-.14.54.19,1.08.72,1.21l8.83,2.24H1c-.55,0-1,.45-1,1s.45,1,1,1h9.37l-9.25,2.5c-.53.14-.85.69-.7,1.23.12.45.52.74.96.74.09,0,.17-.01.26-.04l9.54-2.58-8.55,4.93c-.48.28-.64.89-.37,1.37.19.32.52.5.87.5.17,0,.34-.04.5-.13l8.41-4.86-6.73,6.73c-.39.39-.39,1.02,0,1.41.2.2.45.29.71.29s.51-.1.71-.29l6.73-6.73-4.76,8.25c-.28.48-.11,1.09.37,1.37.16.09.33.13.5.13.35,0,.68-.18.87-.5l5.12-8.86-2.56,9.96c-.14.53.18,1.08.72,1.22.08.02.17.03.25.03.45,0,.85-.3.97-.75l2.2-8.56v8.76c0,.55.45,1,1,1s1-.45,1-1v-9.67l2.55,9.33c.12.44.52.74.96.74.09,0,.18-.01.26-.04.53-.15.85-.7.7-1.23l-2.47-9.04,4.68,8.11c.19.32.52.5.87.5.17,0,.34-.04.5-.13.48-.28.64-.89.37-1.37l-4.76-8.25,6.73,6.73c.2.2.45.29.71.29s.51-.1.71-.29c.39-.39.39-1.02,0-1.41l-6.73-6.73,8.25,4.76c.16.09.33.13.5.13.35,0,.68-.18.87-.5.28-.48.11-1.09-.37-1.37l-8.57-4.95,9.6,2.43c.08.02.17.03.25.03.45,0,.85-.3.97-.75.14-.54-.19-1.08-.72-1.21l-8.83-2.24h9.11c.55,0,1-.45,1-1ZM20.97,14.43c.59,0,1.06.48,1.06,1.06s-.48,1.06-1.06,1.06-1.06-.48-1.06-1.06.48-1.06,1.06-1.06ZM15.33,14.43c.59,0,1.06.48,1.06,1.06s-.48,1.06-1.06,1.06-1.06-.48-1.06-1.06.48-1.06,1.06-1.06ZM22.87,19.65c-.84,1.31-2.7,2.16-4.75,2.16s-3.92-.85-4.75-2.16c-.21-.33-.11-.78.22-.99.33-.21.78-.11.99.22.57.9,1.99,1.5,3.54,1.5s2.97-.6,3.54-1.5c.21-.33.66-.43.99-.22.33.21.43.66.22.99Z"/>
</svg>