<?xml version="1.0" encoding="UTF-8"?><svg id="Layer_1" xmlns="http://www.w3.org/2000/svg" width="352.78mm" height="176.39mm" viewBox="0 0 1000 500"><defs><style>.cls-1{fill:#f7f1e5;}.cls-2{fill:none;}</style></defs><rect class="cls-2" width="1000" height="500"/><path class="cls-1" d="M625.69,131.48c-5.79-8.33-12.27-15.74-18.98-22.92-4.63-4.4-9.26-8.56-13.89-12.5-12.5-9.95-26.16-18.06-39.81-23.61-12.96-5.09-25.93-8.33-39.12-9.72-3.94-.46-8.33-.46-12.27-.7-3.94,0-8.33.46-12.5.7-13.66,1.16-26.85,4.4-39.81,9.26-13.89,5.32-27.55,13.19-40.51,23.38-5.09,3.93-9.95,8.56-15.05,13.19-6.48,6.71-12.5,13.89-18.06,21.53-12.5,17.82-21.53,37.96-26.16,59.72l.46.46c0,3.24,5.09,5.32,10.88,2.78,3.7-1.85,8.57-3.24,14.82-4.63.7-.46,1.39-.46,2.55-.69-.46,1.85-.69,3.47-1.16,5.32.7,2.55,7.64,3.47,9.95,0,.46-2.55,1.16-5.09,1.39-7.64,2.78-.7,5.79-1.16,8.57-1.39,3.94-.69,7.87-1.39,11.57-1.85,1.85-.46,3.7-.69,5.32-1.16-.46,2.78-.69,5.32-1.16,7.87,1.39,3.24,6.02,4.63,9.72.69.69-3.24,1.16-6.48,1.85-9.72,8.33-1.16,16.2-1.85,24.77-2.55,4.63-.46,9.72-.69,14.35-1.16,0,2.78-.46,6.02-.7,9.26.46,2.78,7.64,5.79,10.42,0,.46-3.24.46-6.48.7-9.72,5.09-.46,9.95-.46,15.05-.69h12.5c3.94,0,8.33,0,12.27.46,5.09,0,9.95,0,15.05.46.46,3.24.46,6.48.69,9.72,2.78,5.79,9.95,2.78,10.42,0-.46-3.24-.69-6.02-.69-9.26,4.4.46,9.03.69,13.66,1.16,7.87.69,15.74,1.39,23.61,2.54.46,2.78,1.16,6.02,1.39,9.26,3.71,3.94,8.33,2.55,9.72-.69,0-2.55-.69-5.09-1.16-7.18,2.09,0,3.94.46,6.02.69,3.47.46,6.71,1.16,10.42,1.85,3.47.46,7.18,1.16,9.95,1.85.69,2.55,1.16,5.09,1.85,7.64,2.09,3.7,9.26,2.55,9.72-.46,0-1.39-.46-3.24-.69-5.09l1.85.46c5.79,1.39,10.42,3.24,13.66,4.63,6.02,2.55,10.88.46,11.11-2.78v-.46c-4.17-21.06-12.73-41.2-24.54-58.33ZM552.78,90.05c9.95,6.71,19.68,15.51,28.01,25.46,3.93,5.09,8.33,10.88,11.8,16.9,0,.46.46.69.69,1.39l-.69-.46c-7.64-2.55-15.51-4.63-23.61-6.48-3.7-7.17-7.64-13.89-11.8-20.14-1.39-2.08-2.78-3.94-4.4-5.79-7.64-9.72-15.51-17.13-24.07-23.38,8.56,3.7,16.43,7.64,24.07,12.5ZM501.39,86.81c3.94.69,7.87,9.03,12.27,20.37.46,1.16,1.16,2.08,1.39,3.7,1.16,2.78,2.08,6.02,2.78,9.26-1.39-.46-2.78-.46-4.4-.46-3.94,0-8.33-.46-12.27-.46s-8.33,0-12.5.46h-3.94c1.16-2.78,1.85-6.02,2.78-9.26.46-1.16.69-2.08,1.16-3.24,5.32-15.28,9.26-21.06,12.73-20.37ZM449.07,89.81c7.64-5.09,15.74-9.26,24.07-12.5-8.56,5.79-16.44,13.19-24.07,22.69-2.08,2.08-3.94,4.63-5.79,7.17-4.4,6.02-8.33,12.96-11.81,20.14-7.87,1.85-15.51,3.7-22.92,6.02l-.46.46.46-.69c3.94-6.48,8.33-12.5,12.5-18.06,8.33-10.19,17.59-18.52,28.01-25.23ZM380.09,177.08c-1.39.46-3.24.69-4.63,1.16-4.63,1.16-8.57,2.08-12.5,3.24v-1.39c0-.69,0-1.39.46-2.08.46-2.08,1.16-4.4,2.08-6.48,1.85-3.94,5.33-7.64,9.95-11.11,3.47-2.78,7.87-5.32,12.5-7.87-3.24,7.64-5.79,15.74-7.87,24.54ZM375.69,147.92c6.71-11.81,15.05-22.68,24.77-32.41,2.55-2.55,5.32-5.09,7.87-7.64,5.33-4.63,11.11-9.03,17.13-12.96-4.4,4.4-8.33,8.56-12.27,13.19-1.85,1.85-3.24,3.93-5.09,6.02-5.32,7.64-9.95,15.51-14.35,24.08-6.48,3.24-12.5,6.48-18.06,9.72ZM415.97,171.3c-2.55.46-5.09.69-7.64,1.16-4.4.69-9.03,1.16-13.19,1.85-1.39.46-2.78.69-4.4,1.16,2.78-9.95,6.48-19.68,10.88-29.17.46,0,1.16-.46,1.85-.69,1.85-.69,3.7-1.16,5.09-1.85,5.79-1.85,11.81-3.7,18.05-5.32-4.4,10.19-8.1,21.3-10.65,32.87ZM464.35,166.9c-5.09.46-10.42.69-15.51,1.16-7.87.46-15.51,1.16-22.68,2.08,2.78-12.5,6.71-24.07,11.81-34.72,3.7-.69,7.17-1.16,10.88-1.85,7.18-1.39,14.82-2.08,22.22-2.78-2.55,11.11-4.86,22.92-6.71,36.11ZM449.07,123.61c-1.85.46-3.24.69-5.09,1.16,1.39-2.78,3.24-5.32,5.09-7.87.69-1.39,1.39-2.78,2.55-3.94,10.42-14.81,23.38-25.46,37.27-33.1,1.39-.69,2.55-1.39,3.93-2.08-1.39,1.85-2.78,3.93-3.93,6.02-5.33,9.03-9.26,20.37-10.42,23.61-1.39,4.4-2.78,8.56-4.4,13.19-8.56.69-16.9,1.85-25,3.01ZM513.66,166.2h-24.77c-4.63,0-9.26.46-13.89.46,1.85-13.66,4.4-25.46,7.18-37.04,2.55,0,4.63,0,6.71-.46h12.5c3.94,0,8.33,0,12.27.46,2.55,0,5.09,0,7.17.46,2.78,11.11,5.32,22.92,6.71,36.57-4.63,0-9.26-.46-13.89-.46ZM528.24,121.06c-1.39-4.63-2.78-9.26-4.4-13.66-3.24-8.56-6.48-16.2-10.42-22.92-1.39-2.55-2.78-4.63-4.4-6.71,1.39.69,2.78,1.39,4.4,2.08,13.19,7.64,25.23,18.75,35.19,33.1,1.39,1.85,2.55,3.7,3.94,5.79,1.16,1.85,2.55,3.94,3.7,6.02-1.16-.46-2.55-.46-3.7-.69-7.64-1.62-15.98-2.31-24.31-3.01ZM552.78,168.06c-5.09-.46-9.72-.69-14.81-.69-1.85-13.66-3.94-25.46-6.71-36.57,7.17.69,14.35,1.85,21.53,3.24,3.24.46,6.02,1.16,9.26,1.85,5.09,10.42,9.03,21.99,12.27,34.49-7.18-.93-14.35-1.62-21.53-2.31ZM604.86,174.07c-3.94-.46-8.33-1.16-12.27-1.85-2.78-.46-5.32-.69-7.87-1.16-2.55-11.57-6.02-22.68-10.42-32.64,6.02,1.39,12.27,3.24,18.29,5.32,1.16.46,2.54,1.16,3.94,1.39,1.16.46,2.54,1.16,3.47,1.39,4.4,9.03,7.87,18.75,10.42,28.24-1.62,0-3.47-.23-5.56-.69ZM607.64,139.35c-4.4-9.03-9.72-17.13-15.05-24.77-1.39-1.85-2.78-3.7-4.4-5.32-3.7-4.4-7.17-8.33-11.11-11.81,5.32,3.7,10.42,7.64,15.51,11.81,2.08,2.08,4.63,4.4,6.71,6.48,9.72,9.72,18.28,20.83,25.46,32.64-4.86-3.24-10.65-6.25-17.13-9.03ZM637.04,181.25c-3.47-1.16-7.18-2.08-11.57-2.78-1.39-.46-2.78-.69-4.4-1.16-1.85-8.33-4.4-16.43-7.64-24.31,4.4,2.55,8.33,5.09,11.8,7.64,7.18,6.02,11.57,12.5,11.57,19.44.23.46.23.93.23,1.16Z"/><path class="cls-1" d="M118.98,253.47v20.14c0,.93.23,1.62.69,2.08.46.46,1.16.93,2.31,1.16v1.39h-18.98v-1.39c1.16-.23,1.85-.69,2.31-1.16.46-.46.69-1.16.69-2.08v-51.39c0-.93-.23-1.62-.69-2.08-.46-.46-1.16-.93-2.31-1.16v-1.39h37.96c4.63,0,8.33.23,11.11.69,2.78.46,5.09,1.39,7.18,2.78,2.32,1.62,4.17,3.7,5.32,6.25,1.16,2.54,1.62,5.32,1.62,8.1,0,9.95-5.56,15.74-16.43,17.36l11.81,16.9c2.08,3.01,3.7,4.86,4.63,5.79.93.93,2.08,1.39,3.47,1.39v1.39h-21.99v-1.39c1.62-.23,2.32-.69,2.32-1.62,0-.46-.69-1.85-2.08-3.94l-12.27-17.82h-16.67ZM118.98,243.52h20.37c3.01,0,5.09,0,6.48-.23,1.16-.23,2.32-.46,3.47-1.16,2.31-1.16,3.47-3.47,3.47-6.48,0-3.24-1.16-5.32-3.47-6.48-1.16-.69-2.32-.93-3.47-1.16-1.16-.23-3.24-.23-6.48-.23h-20.37v15.74Z"/><path class="cls-1" d="M192.59,251.62v16.67h39.12c.93,0,1.62-.23,2.08-.7.46-.46.93-1.16,1.16-2.31h1.39v15.74h-1.39c-.23-1.16-.69-1.85-1.16-2.31-.46-.46-1.16-.7-2.08-.7h-55.32v-1.39c1.16-.23,1.85-.69,2.31-1.16.46-.46.69-1.16.69-2.08v-51.16c0-.93-.23-1.62-.69-2.08-.46-.46-1.16-.93-2.31-1.16v-1.39h54.17c.93,0,1.62-.23,2.08-.69.46-.46.93-1.16,1.16-2.31h1.39v15.74h-1.39c-.23-1.16-.69-1.85-1.16-2.32-.46-.46-1.16-.69-2.08-.69h-37.96v14.35h24.77c.93,0,1.62-.23,2.08-.69.46-.46.93-1.16,1.16-2.32h1.39v15.28h-1.39c-.23-.93-.69-1.85-1.16-2.31-.46-.46-1.16-.7-2.08-.7h-24.77v.69h0Z"/><path class="cls-1" d="M240.51,275.93l5.79-15.51,1.39.46v.93c0,1.16.69,2.31,2.32,3.47,1.62.93,3.7,1.85,6.48,2.55,2.78.69,5.32,1.16,7.64,1.16,3.93,0,6.94-.93,8.8-2.78.93-.93,1.62-2.09,1.85-3.24.23-1.16.46-3.24.46-5.79v-34.95c0-.93-.23-1.62-.69-2.08-.46-.46-1.16-.93-2.31-1.16v-1.39h18.98v1.39c-1.16.23-1.85.69-2.31,1.16s-.69,1.16-.69,2.08v35.88c0,5.79-.93,10.19-2.55,12.73-1.62,2.78-4.17,4.86-7.64,6.48-3.47,1.39-7.41,2.31-11.81,2.31-2.55,0-4.86-.23-6.71-.46-1.85-.23-5.09-1.16-9.26-2.32-2.78-.69-4.63-1.16-5.79-1.16-.93,0-1.85.46-2.78,1.16l-1.16-.92Z"/><path class="cls-1" d="M357.41,222.69l-7.18,14.35-1.16-.69v-.7c0-.93-.93-2.08-2.55-3.24-5.33-3.7-11.57-5.55-18.52-5.55-3.24,0-6.02.46-8.33,1.16-1.85.69-3.24,1.39-4.17,2.78-1.16,1.16-1.62,2.54-1.62,3.93,0,2.32,1.39,3.94,4.17,4.63,1.39.46,4.4.93,9.26,1.39l6.94.69c4.17.46,7.41,1.16,10.19,1.85,2.55.69,4.86,1.85,6.94,3.24,2.08,1.39,3.7,3.47,4.86,5.79,1.16,2.32,1.85,4.86,1.85,7.64,0,4.17-1.39,8.1-4.17,11.34-2.55,3.01-6.48,5.32-11.57,6.71-3.93,1.16-8.1,1.62-12.5,1.62-8.1,0-15.97-1.85-23.84-5.79-1.62-.69-2.55-1.16-3.01-1.16s-.93.23-1.85.93l-1.39-.69,6.48-14.82,1.39.69v.69c0,1.39.7,2.55,1.85,3.71,1.85,1.62,4.86,3.24,9.03,4.4,3.93,1.16,7.87,1.85,11.57,1.85,3.93,0,7.41-.7,10.18-2.08,1.62-.69,2.78-1.62,3.7-3.01.93-1.39,1.39-2.55,1.39-3.94,0-2.09-1.16-3.47-3.24-4.4-1.62-.69-4.63-1.16-9.26-1.62l-6.94-.7c-4.63-.46-7.87-.93-9.72-1.39-1.85-.46-3.7-1.16-5.79-2.08-2.78-1.39-4.86-3.24-6.48-6.02-1.39-2.31-2.08-5.09-2.08-8.33,0-5.09,1.85-9.49,5.32-12.73,4.63-4.4,11.57-6.71,20.83-6.71,3.93,0,7.41.46,10.88,1.16,3.24.69,7.64,2.31,12.5,4.4,1.62.7,2.78.93,3.24.93.69,0,1.39-.23,2.08-.93l.69.69Z"/><path class="cls-1" d="M382.64,251.62v16.67h39.12c.93,0,1.62-.23,2.08-.7.46-.46.93-1.16,1.16-2.31h1.39v15.74h-1.39c-.23-1.16-.7-1.85-1.16-2.31-.46-.46-1.16-.7-2.08-.7h-55.09v-1.39c1.16-.23,1.85-.69,2.32-1.16.46-.46.7-1.16.7-2.08v-51.16c0-.93-.23-1.62-.7-2.08-.46-.46-1.16-.93-2.32-1.16v-1.39h54.17c.93,0,1.62-.23,2.08-.69.46-.46.93-1.16,1.16-2.31h1.39v15.74h-1.39c-.23-1.16-.7-1.85-1.16-2.32-.46-.46-1.16-.69-2.08-.69h-37.96v14.35h24.77c.93,0,1.62-.23,2.08-.69.46-.46.93-1.16,1.16-2.32h1.39v15.28h-1.39c-.23-.93-.69-1.85-1.16-2.31-.46-.46-1.16-.7-2.08-.7h-25v.69h0Z"/><path class="cls-1" d="M489.81,256.48h-15.05c-.92,0-1.62.23-2.08.69-.46.46-.93,1.16-1.16,2.32h-1.39v-14.12h1.39c.23,1.16.69,1.85,1.16,2.31s1.16.69,2.08.69h28.7v1.39c-1.16.23-1.85.7-2.32,1.16-.46.46-.69,1.16-.69,2.08v12.5c0,.93.23,1.62.69,2.08.46.46,1.16.93,2.32,1.16v1.16c-11.57,6.48-22.69,9.96-33.57,9.96-9.72,0-17.82-2.32-24.07-6.94-7.87-5.79-11.81-14.12-11.81-24.54,0-9.72,3.47-17.59,10.42-23.15,6.48-5.55,15.28-8.1,26.16-8.1,3.47,0,6.71.23,9.72.93,3.01.69,6.48,1.62,10.42,3.24,2.08.69,3.47,1.16,4.4,1.16.7,0,1.39-.23,2.08-.93l1.16.69-7.17,14.58-1.39-.69c0-.93-.23-1.62-.46-2.08-.23-.46-.69-.93-1.62-1.62-1.85-1.39-4.4-2.55-7.87-3.47-3.47-.93-6.71-1.39-9.95-1.39-6.25,0-11.57,1.85-15.74,5.32-4.63,3.93-7.18,9.26-7.18,15.97s2.31,11.57,6.94,15.51c4.17,3.7,9.72,5.32,16.67,5.32,3.24,0,6.71-.46,9.95-1.16,3.24-.69,6.02-1.85,8.56-3.24v-8.8h.7Z"/><path class="cls-1" d="M556.71,262.73h-27.55l-4.17,8.57c-.46,1.16-.92,2.08-.92,2.78,0,1.39.92,2.31,3.01,2.77v1.39h-20.14v-1.39c1.16-.23,2.08-.69,2.78-1.16.69-.69,1.39-1.85,2.08-3.47l22.45-46.76c.69-1.39,1.16-2.78,1.16-3.47,0-1.39-.92-2.32-2.55-3.01v-1.39h21.53v1.39c-1.85.46-2.55,1.39-2.55,2.55,0,.93.23,1.85.92,3.01l23.15,46.76c.93,2.08,1.85,3.24,2.55,4.17.69.93,1.85,1.16,3.01,1.39v1.39h-22.45v-1.39c1.85-.23,3.01-1.16,3.01-2.77,0-.7-.23-1.62-.92-2.78l-4.4-8.57ZM552.78,254.4l-9.95-21.76-9.95,21.76h19.91Z"/><path class="cls-1" d="M602.31,253.47v20.14c0,.93.23,1.62.69,2.08.46.46,1.16.93,2.31,1.16v1.39h-18.98v-1.39c1.16-.23,1.85-.69,2.32-1.16.46-.46.69-1.16.69-2.08v-51.39c0-.93-.23-1.62-.69-2.08-.46-.46-1.16-.93-2.32-1.16v-1.39h37.96c4.63,0,8.33.23,11.11.69s5.09,1.39,7.17,2.78c2.31,1.62,4.17,3.7,5.33,6.25,1.16,2.54.46,5.55,1.62,8.1,4.4,9.72-2.55,15.51-16.43,17.36l11.8,16.9c2.08,3.01,3.71,4.86,4.63,5.79.93.93,2.08,1.39,3.47,1.39v1.39h-21.99v-1.39c1.62-.23,2.31-.69,2.31-1.62,0-.46-.69-1.85-2.08-3.94l-12.27-17.82h-16.67ZM602.31,243.52h20.37c3.01,0,5.09,0,6.48-.23,1.16-.23,2.32-.46,3.47-1.16,2.31-1.16,3.47-3.47,3.47-6.48,0-3.24-1.16-5.32-3.47-6.48-1.16-.69-2.32-.93-3.47-1.16s-3.24-.23-6.48-.23h-20.37v15.74Z"/><path class="cls-1" d="M704.63,262.73h-27.55l-4.17,8.57c-.46,1.16-.93,2.08-.93,2.78,0,1.39.93,2.31,3.01,2.77v1.39h-20.14v-1.39c1.16-.23,2.08-.69,2.78-1.16.7-.69,1.39-1.85,2.09-3.47l22.45-46.76c.69-1.39,1.16-2.78,1.16-3.47,0-1.39-.93-2.32-2.55-3.01v-1.39h21.53v1.39c-1.85.46-2.55,1.39-2.55,2.55,0,.93.23,1.85.93,3.01l23.15,46.76c.92,2.08,1.85,3.24,2.55,4.17.69.93,1.85,1.16,3.01,1.39v1.39h-22.45v-1.39c1.85-.23,3.01-1.16,3.01-2.77,0-.7-.23-1.62-.93-2.78l-4.39-8.57ZM700.69,254.4l-9.95-21.76-9.96,21.76h19.91Z"/><path class="cls-1" d="M749.07,236.58v37.04c0,.93.23,1.62.7,2.08.46.46,1.16.93,2.31,1.16v1.39h-17.82v-1.39c1.16-.23,1.85-.69,2.31-1.16.46-.46.69-1.16.69-2.08v-51.62c0-.93-.23-1.62-.69-2.08-.46-.46-1.16-.93-2.31-1.16v-1.39h20.6v1.39c-1.39.23-1.85.93-1.85,2.08,0,.7.46,1.39,1.16,2.32l33.56,34.95v-36.11c0-.93-.23-1.62-.69-2.08s-1.16-.93-2.31-1.16v-1.39h17.82v1.39c-1.16.23-1.85.69-2.31,1.16-.46.46-.69,1.16-.69,2.08v51.39c0,.93.23,1.62.69,2.08.46.46,1.16.93,2.31,1.16v1.39h-19.21v-1.39c1.16-.23,1.85-.93,1.85-1.85,0-.69-.69-1.62-2.08-3.01l-34.03-35.18Z"/><path class="cls-1" d="M845.6,227.55v46.07c0,.93.23,1.62.69,2.08.46.46,1.16.93,2.32,1.16v1.39h-18.98v-1.39c1.16-.23,1.85-.69,2.31-1.16.46-.46.69-1.16.69-2.08v-46.07h-18.98c-.93,0-1.62.23-2.08.7-.46.46-.92,1.16-1.16,2.31h-1.39v-15.74h1.39c.23,1.16.7,1.85,1.16,2.32.46.46,1.16.7,2.08.7h50.93c.93,0,1.62-.23,2.09-.7.46-.46.92-1.16,1.16-2.32h1.39v15.74h-1.39c-.23-1.16-.7-1.85-1.16-2.31-.46-.46-1.16-.7-2.09-.7h-18.98Z"/><path class="cls-1" d="M878.01,273.61v-51.62c0-.93-.23-1.62-.69-2.08-.46-.46-1.16-.93-2.31-1.16v-1.39h18.98v1.39c-1.16.23-1.85.69-2.32,1.16-.46.46-.69,1.16-.69,2.08v51.39c0,.93.23,1.62.69,2.08.46.46,1.16.93,2.32,1.16v1.39h-18.98v-1.39c1.16-.23,1.85-.69,2.31-1.16.46-.46.7-.93.7-1.85Z"/><path class="cls-1" d="M249.54,321.06v13.19c0,.46.23.92.46,1.39.23.23.69.46,1.39.69v.93h-11.57v-.93c.69-.23,1.16-.46,1.39-.69.23-.23.46-.69.46-1.16v-31.25c0-.46-.23-.93-.46-1.16-.23-.23-.7-.46-1.39-.69v-.93h32.64c.46,0,.93-.23,1.16-.46.23-.23.46-.69.69-1.39h.93v9.49h-.93c-.23-.69-.46-1.16-.69-1.39-.23-.23-.7-.46-1.16-.46h-22.92v8.8h14.82c.46,0,.93-.23,1.16-.46.23-.23.46-.7.69-1.39h.93v9.26h-.93c-.23-.69-.46-1.16-.69-1.39-.23-.23-.7-.46-1.16-.46h-14.82v.46Z"/><path class="cls-1" d="M349.31,299.54c6.48,0,11.57,1.85,15.28,5.32,3.94,3.7,6.02,8.33,6.02,14.12,0,3.47-.93,6.71-2.78,9.95-3.7,6.02-9.95,9.03-18.29,9.03-6.48,0-11.34-1.85-15.28-5.32-2.08-1.85-3.47-4.17-4.63-6.71-.93-2.32-1.39-4.63-1.39-7.18,0-3.7.93-7.18,2.78-10.19,3.7-5.79,9.72-8.8,18.29-9.03ZM349.54,305.79c-3.47,0-6.48,1.16-8.8,3.24-2.78,2.55-4.17,5.79-4.17,9.72s1.39,7.18,4.17,9.72c2.32,2.08,5.32,3.24,8.8,3.24s6.48-1.16,8.8-3.24c1.39-1.16,2.55-2.78,3.24-4.63.69-1.62.92-3.24.92-4.86,0-4.17-1.39-7.41-4.17-9.95-2.32-2.08-5.32-3.24-8.8-3.24Z"/><path class="cls-1" d="M435.65,311.81v22.45c0,.46.23.92.46,1.16.23.23.7.46,1.39.69v.92h-10.88v-.92c.7-.23,1.16-.46,1.39-.69.23-.23.46-.7.46-1.16v-31.25c0-.46-.23-.93-.46-1.16-.23-.23-.69-.46-1.39-.7v-.92h12.5v.92c-.7.23-1.16.7-1.16,1.16s.23.93.69,1.39l20.37,21.06v-21.76c0-.46-.23-.93-.46-1.16-.23-.23-.7-.46-1.39-.7v-.92h10.88v.92c-.7.23-1.16.46-1.39.7-.23.23-.46.69-.46,1.16v31.25c0,.46.23.92.46,1.16.23.23.69.46,1.39.69v.92h-11.58v-.92c.69-.23,1.16-.46,1.16-1.16,0-.46-.46-.93-1.39-1.85l-20.6-21.3Z"/><path class="cls-1" d="M526.39,334.26v-31.25c0-.46-.23-.93-.46-1.16-.23-.23-.69-.46-1.39-.7v-.92h20.6c4.4,0,7.87.46,10.42,1.62,3.47,1.39,6.02,3.93,7.64,7.41,1.39,2.78,2.08,5.79,2.08,9.49,0,6.25-1.85,11.11-5.79,14.58-1.62,1.39-3.47,2.32-5.79,3.01-2.08.69-5.09.93-8.33.93h-20.6v-.93c.69-.23,1.16-.46,1.39-.69,0-.47.23-.93.23-1.39ZM534.49,331.02h10.18c3.24,0,5.56-.46,7.18-1.39,3.47-1.85,5.32-5.56,5.32-11.11,0-3.93-.93-6.94-2.78-9.03-1.16-1.16-2.32-2.08-3.7-2.55-1.39-.46-3.47-.69-5.79-.69h-10.19v24.77h-.23Z"/><path class="cls-1" d="M630.79,320.83v10.19h23.61c.46,0,.92-.23,1.16-.46.23-.23.46-.69.69-1.39h.93v9.49h-.93c-.23-.69-.46-1.16-.69-1.39-.23-.23-.69-.46-1.16-.46h-33.56v-.93c.69-.23,1.16-.46,1.39-.69.23-.23.46-.69.46-1.16v-31.25c0-.46-.23-.93-.46-1.16-.23-.23-.69-.46-1.39-.69v-.93h32.87c.46,0,.92-.23,1.16-.46.23-.23.46-.7.69-1.39h.92v9.49h-.92c-.23-.7-.46-1.16-.69-1.39-.23-.23-.7-.46-1.16-.46h-23.15v8.8h15.05c.46,0,.92-.23,1.16-.46.23-.23.46-.69.69-1.39h.92v9.26h-.92c-.23-.69-.46-1.16-.69-1.39-.23-.23-.7-.46-1.16-.46h-14.82v.7h0Z"/><path class="cls-1" d="M722.22,311.81v22.45c0,.46.23.92.46,1.16.23.23.69.46,1.39.69v.92h-11.11v-.92c.69-.23,1.16-.46,1.39-.69.23-.23.46-.7.46-1.16v-31.25c0-.46-.23-.93-.46-1.16-.23-.23-.69-.46-1.39-.7v-.92h12.5v.92c-.7.23-1.16.7-1.16,1.16s.23.93.69,1.39l20.37,21.06v-21.76c0-.46-.23-.93-.46-1.16-.23-.23-.69-.46-1.39-.7v-.92h10.88v.92c-.7.23-1.16.46-1.39.7-.23.23-.46.69-.46,1.16v31.25c0,.46.23.92.46,1.16.23.23.69.46,1.39.69v.92h-11.57v-.92c.69-.23,1.16-.46,1.16-1.16,0-.46-.46-.93-1.39-1.85l-20.37-21.3Z"/><path class="cls-1" d="M84.03,233.8h11.11v18.06h-11.11c-.46,0-.69.46-1.16.69-.69.7-1.16,1.39-1.16,2.55h0v93.98h0c0,1.16.46,1.85,1.16,2.55.46.46.69.46,1.16.46h831.95c.46,0,.69,0,1.16-.46.69-.7,1.16-1.39,1.16-2.55h0v-93.98h0c0-1.16-.46-1.85-1.16-2.55-.46-.46-.69-.69-1.16-.69h-13.89v-18.05h13.89c5.79,0,11.11,2.55,14.81,6.71,3.71,3.7,5.79,8.57,5.79,14.35h0v93.98h0c0,5.79-2.08,10.88-5.79,14.81-3.47,3.94-9.03,6.48-14.81,6.48v.46H84.03v-.46c-5.79,0-11.11-2.55-14.81-6.48-3.7-3.93-5.79-9.03-5.79-14.81h0v-93.98h0c0-5.79,2.08-10.88,5.79-14.35,3.7-4.16,9.03-6.71,14.81-6.71h0Z"/></svg>