<?xml version="1.0" encoding="UTF-8"?>
<svg xmlns="http://www.w3.org/2000/svg" width="108" height="39" viewBox="0 0 108 39" fill="none">
  <g id="logo">
    <g id="Vector">
      <path d="M97.3834 15.2891C98.5623 15.6957 99.8078 15.8998 101.119 15.8998L101.12 15.902C102.012 15.902 102.822 15.7945 103.546 15.578C104.272 15.363 104.893 15.0492 105.409 14.6382C105.926 14.2272 106.326 13.7306 106.613 13.1448C106.898 12.5605 107.042 11.8913 107.042 11.1395V11.0978C107.042 10.4154 106.916 9.8267 106.665 9.33305C106.413 8.83793 106.051 8.41667 105.577 8.06928C105.103 7.72043 104.527 7.42424 103.85 7.17997C103.174 6.93643 102.417 6.72507 101.581 6.5437C101.078 6.43253 100.662 6.32356 100.335 6.21972C100.007 6.11513 99.75 6.01128 99.5606 5.90597C99.3719 5.80138 99.2396 5.6873 99.1628 5.56151C99.086 5.43571 99.0487 5.29017 99.0487 5.12343V5.08174C99.0487 4.81627 99.1701 4.59321 99.4144 4.41329C99.6579 4.23192 100.025 4.14124 100.513 4.14124C101.168 4.14124 101.849 4.26337 102.553 4.50691C103.258 4.75117 103.945 5.11027 104.614 5.58491L106.644 2.70854C105.848 2.06276 104.959 1.57496 103.975 1.24512C102.992 0.915284 101.872 0.75 100.617 0.75C99.7376 0.75 98.9492 0.865549 98.2515 1.09446C97.5538 1.32483 96.957 1.64882 96.4619 2.06642C95.9676 2.48401 95.5902 2.97913 95.332 3.54958C95.0739 4.12003 94.9459 4.74752 94.9459 5.42913V5.47082C94.9459 6.22264 95.0884 6.85305 95.3737 7.36061C95.6604 7.86889 96.0509 8.2938 96.5461 8.63461C97.0404 8.97688 97.624 9.25552 98.2932 9.47053C98.9624 9.68628 99.6886 9.88447 100.47 10.0658C100.973 10.177 101.38 10.286 101.694 10.3898C102.008 10.4951 102.259 10.6027 102.447 10.7138C102.637 10.825 102.765 10.9405 102.835 11.0583C102.905 11.1768 102.94 11.3128 102.94 11.4656V11.5073C102.94 11.8277 102.796 12.0749 102.511 12.2489C102.225 12.423 101.81 12.5093 101.265 12.5093C99.5628 12.5093 97.9802 11.9242 96.5146 10.7518L94.2555 13.4571C95.1616 14.2711 96.2045 14.8817 97.3834 15.2891Z" fill="#f7f1e5"></path>
      <path d="M4.5409 0.999382L7.86851 10.2699L11.1968 0.999382H15.6544L9.71079 15.7535H5.94288L0 0.999382H4.5409Z" fill="#f7f1e5"></path>
      <path fill-rule="evenodd" clip-rule="evenodd" d="M37.8374 11.2118L40.7877 15.6489H44.2375C40.606 17.789 38.1695 21.7401 38.1695 26.26C38.1695 33.0571 43.6787 38.5678 50.4773 38.5678C57.2759 38.5678 62.7851 33.0585 62.7851 26.26C62.7851 21.4628 60.0414 17.3077 56.038 15.2769C56.2357 15.222 56.4289 15.161 56.6177 15.0938C57.6576 14.7245 58.533 14.2118 59.2439 13.5558C59.9555 12.9005 60.4996 12.1224 60.8769 11.2221C61.2529 10.3218 61.4423 9.34182 61.4423 8.28209V8.24041C61.4423 7.18069 61.2565 6.20654 60.8872 5.32088C60.5171 4.43523 59.9803 3.67098 59.2761 3.02886C58.5711 2.38747 57.7059 1.88796 56.6813 1.53253C55.6552 1.1771 54.4865 0.999382 53.1752 0.999382H47.5256V14.3084C46.6956 14.5127 45.8987 14.8012 45.1446 15.1643L41.9812 10.5427C42.902 10.1521 43.6348 9.5868 44.1782 8.84743C44.7216 8.10803 44.9944 7.17265 44.9944 6.04345V6.00177C44.9944 4.56468 44.5599 3.42744 43.6962 2.59078C43.2069 2.08762 42.5722 1.69709 41.7911 1.41844C41.0101 1.13834 40.0542 0.999382 38.9249 0.999382H31.9984V15.6489H36.0581V11.2118H37.8374ZM40.3467 7.56026C39.9707 7.87474 39.4332 8.03125 38.7355 8.03125H36.0574V4.51641H38.715C39.3974 4.51641 39.9357 4.65902 40.3262 4.94424C40.716 5.23093 40.912 5.66681 40.912 6.25261V6.29431C40.912 6.82526 40.7241 7.24652 40.3467 7.56026ZM53.2447 12.0492C54.4631 12.0492 55.4431 11.7289 56.1854 11.0868C56.927 10.4461 57.2985 9.53049 57.2985 8.34499V8.3033C57.2985 7.13096 56.927 6.2219 56.1854 5.5732C55.4424 4.9245 54.4631 4.59905 53.2447 4.59905H51.5852V12.0492H53.2447ZM51.8354 31.9367C51.7791 32.8172 52.0453 34.7319 54.4097 33.6582H54.4112C57.055 32.2497 58.857 29.4662 58.857 26.26C58.857 21.6328 55.106 17.8817 50.4787 17.8817C45.8516 17.8817 42.1005 21.6328 42.1005 26.26C42.1005 29.3857 43.8111 32.1078 46.3481 33.5485C47.4188 34.0744 48.6716 33.6955 49.4066 32.9518C50.3698 31.9769 50.8532 30.8228 49.6685 29.3031C49.0183 28.4694 48.9912 26.8633 50.2813 25.4014C50.3837 25.2675 50.4817 25.2668 50.35 25.4921C49.3284 27.2473 50.2082 28.3202 50.9432 29.0391C51.7199 29.796 51.9034 30.8748 51.8354 31.9367Z" fill="#f7f1e5"></path>
      <path d="M88.7236 15.6489L82.4531 7.61219V15.6489H78.4555V0.999382H82.2512L88.2907 8.74212V0.999382H92.2889V15.6489H88.7236Z" fill="#f7f1e5"></path>
      <path d="M29.3188 0.999382H17.5581V15.6489H29.4241V12.1962H21.5541V9.87277H28.5867V6.67095H21.5541V4.45278H29.3188V0.999382Z" fill="#f7f1e5"></path>
      <path d="M64.0159 0.999382H75.7766V4.45278H68.0127V6.67095H75.0439V9.87277H68.0127V12.1962H75.882V15.6489H64.0159V0.999382Z" fill="#f7f1e5"></path>
      <path d="M11.5618 31.6975C12.7407 32.1042 13.9862 32.3082 15.2975 32.3082L15.2983 32.3089C16.1905 32.3089 17.0001 32.2014 17.7263 31.9849C18.4511 31.7699 19.072 31.4562 19.5883 31.0452C20.1046 30.6356 20.5054 30.1376 20.7921 29.5518C21.0773 28.9674 21.2214 28.2982 21.2214 27.5464V27.5047C21.2214 26.8224 21.0956 26.2337 20.8441 25.74C20.5924 25.2449 20.2304 24.8236 19.7558 24.4762C19.2812 24.1274 18.7056 23.8319 18.0298 23.5884C17.3526 23.3434 16.5956 23.132 15.759 22.9507C15.2566 22.8395 14.8404 22.732 14.5135 22.6267C14.1851 22.5228 13.9284 22.4182 13.739 22.3144C13.5503 22.2091 13.418 22.095 13.3412 21.9692C13.2644 21.8434 13.2271 21.6979 13.2271 21.5311V21.4894C13.2271 21.224 13.3485 21.0009 13.5928 20.821C13.8363 20.6396 14.2034 20.5489 14.6912 20.5489C15.3465 20.5489 16.0274 20.6711 16.7317 20.9146C17.436 21.1589 18.1234 21.518 18.7926 21.9926L20.8228 19.1162C20.0264 18.4704 19.1378 17.9826 18.1534 17.6528C17.1705 17.323 16.05 17.1577 14.7943 17.1577C13.916 17.1577 13.1276 17.2732 12.4299 17.5021C11.7322 17.7325 11.1355 18.0565 10.6403 18.4741C10.1452 18.8917 9.76786 19.3868 9.51117 19.9573C9.25227 20.5277 9.12279 21.1552 9.12279 21.8368V21.8785C9.12279 22.6303 9.26684 23.2607 9.5521 23.7683C9.83878 24.2773 10.2293 24.7015 10.7245 25.0438C11.2188 25.3846 11.8024 25.6632 12.4716 25.8797C13.1422 26.0947 13.867 26.2929 14.6481 26.4743C15.1512 26.5869 15.5586 26.6944 15.8724 26.7983C16.1861 26.9036 16.4377 27.0111 16.6256 27.1222C16.815 27.2334 16.943 27.349 17.0132 27.4667C17.0834 27.5852 17.1186 27.7212 17.1186 27.8741V27.9157C17.1186 28.2361 16.9745 28.4833 16.6893 28.6573C16.4033 28.8314 15.9886 28.9177 15.4438 28.9177C13.742 28.9177 12.1586 28.3326 10.6945 27.1603L8.43387 29.8655C9.33998 30.6795 10.3829 31.2909 11.5618 31.6975Z" fill="#f7f1e5"></path>
      <path d="M23.6684 17.4078H27.7281V23.3514L32.7722 17.4078H37.5852L32.0394 23.7069L37.7732 32.0581H32.8965L29.2142 26.6161L27.7281 28.2697V32.0581H23.6684V17.4078Z" fill="#f7f1e5"></path>
      <path d="M67.1651 17.4078H62.6242L68.567 32.1619H72.335L78.2785 17.4078H73.8196L70.4927 26.6783L67.1651 17.4078Z" fill="#f7f1e5"></path>
      <path d="M80.1823 17.4078H91.9429V20.8612H84.1783V23.0794H91.2102V26.2812H84.1783V28.6039H92.0483V32.0581H80.1823V17.4078Z" fill="#f7f1e5"></path>
      <path fill-rule="evenodd" clip-rule="evenodd" d="M101.109 31.0868C101.239 30.7738 101.303 30.433 101.303 30.0651H101.303C101.303 29.6965 101.238 29.3557 101.108 29.0435C100.979 28.7297 100.802 28.4569 100.577 28.2258C100.353 27.994 100.089 27.8141 99.7881 27.6846C99.4861 27.5544 99.1642 27.4901 98.8234 27.4901H98.8096C98.4688 27.4901 98.1492 27.5544 97.8493 27.6846C97.5487 27.8141 97.2883 27.9918 97.0653 28.2192C96.8429 28.446 96.6667 28.7165 96.5373 29.0303C96.4086 29.3433 96.3427 29.6841 96.3427 30.052C96.3427 30.4198 96.4078 30.7614 96.5373 31.0737C96.666 31.3874 96.8437 31.6602 97.0682 31.8913C97.2935 32.1231 97.5567 32.3031 97.8588 32.4325C98.1616 32.5627 98.4826 32.627 98.8227 32.627H98.8366C99.1774 32.627 99.4985 32.5627 99.7983 32.4325C100.097 32.3031 100.359 32.1253 100.581 31.8979C100.804 31.6712 100.979 31.4006 101.109 31.0868ZM100.009 29.5569C100.077 29.7061 100.111 29.8728 100.111 30.0549H100.11C100.11 30.237 100.075 30.4038 100.005 30.5529C99.9344 30.7036 99.8407 30.8323 99.7215 30.9391C99.6038 31.0466 99.4678 31.1292 99.3127 31.1892C99.1591 31.2485 98.9961 31.2777 98.8227 31.2777H98.8088C98.637 31.2777 98.4738 31.2492 98.3188 31.1929C98.1652 31.1358 98.0292 31.0539 97.9137 30.9464C97.7981 30.8404 97.7067 30.7124 97.6386 30.5639C97.5692 30.4162 97.5356 30.2509 97.5356 30.0688C97.5356 29.8867 97.5706 29.7199 97.6423 29.5708C97.7126 29.4201 97.8068 29.2899 97.9246 29.181C98.0424 29.0713 98.1791 28.9879 98.3334 28.9286C98.4885 28.8687 98.6516 28.8394 98.8234 28.8394H98.8374C99.0099 28.8394 99.173 28.8687 99.3274 28.9286C99.4824 28.9871 99.6169 29.0691 99.7325 29.1744C99.8495 29.2782 99.9409 29.4062 100.009 29.5569Z" fill="#f7f1e5"></path>
      <path fill-rule="evenodd" clip-rule="evenodd" d="M96.4393 26.9175V24.6635C96.4393 24.2956 96.4846 23.984 96.5753 23.7303C96.6668 23.4757 96.794 23.2695 96.9571 23.1093C97.2298 22.8285 97.6006 22.6866 98.0679 22.6866H98.0819C98.4498 22.6866 98.7532 22.7751 98.9946 22.9528C99.2345 23.1298 99.4195 23.3682 99.5461 23.6674L101.208 22.5301V24.0557L99.7647 25.0174V25.5959H101.208V26.9175H96.4393ZM98.7277 24.7242C98.7277 24.4967 98.6764 24.3219 98.5748 24.1998C98.4731 24.0776 98.3349 24.0155 98.1623 24.0155H98.1484C97.9582 24.0155 97.8157 24.0791 97.7228 24.2071C97.6299 24.3336 97.5839 24.5091 97.5839 24.7315V25.5966H98.7277V24.7242Z" fill="#f7f1e5"></path>
      <path d="M101.124 20.7354C101.243 20.4195 101.303 20.0757 101.303 19.7035C101.303 19.2675 101.233 18.8774 101.091 18.5326C100.951 18.1874 100.776 17.8883 100.567 17.6338H98.4212V19.8271H99.3895V18.8873H99.968C100.099 19.0877 100.165 19.3429 100.165 19.653C100.165 19.8439 100.132 20.0187 100.066 20.1759C100 20.3339 99.9095 20.4692 99.794 20.5862C99.6776 20.7025 99.5387 20.7917 99.3742 20.8553C99.211 20.9204 99.0348 20.9519 98.8432 20.9519H98.8293C98.6487 20.9519 98.4775 20.9197 98.3188 20.8553C98.1609 20.7917 98.0226 20.7061 97.9034 20.5972C97.7857 20.4882 97.6928 20.3602 97.6248 20.2118C97.5553 20.064 97.5217 19.9031 97.5217 19.7313C97.5217 19.4943 97.5597 19.2873 97.6379 19.1082C97.7147 18.9282 97.8259 18.7527 97.9707 18.5794L97.0375 17.8027C96.8203 18.0572 96.6492 18.338 96.527 18.6452C96.4049 18.9509 96.3427 19.3151 96.3427 19.7378C96.3427 20.1057 96.4071 20.4472 96.5343 20.7625C96.6616 21.0777 96.8379 21.3483 97.0624 21.5735C97.2876 21.8002 97.5509 21.9772 97.853 22.1059C98.155 22.2354 98.4783 22.2997 98.8234 22.2997H98.8374C99.2008 22.2997 99.5336 22.2339 99.8349 22.1016C100.137 21.9699 100.397 21.7885 100.616 21.5567C100.834 21.3256 101.002 21.0513 101.124 20.7354Z" fill="#f7f1e5"></path>
      <path d="M95.5624 31.1285C95.5624 31.6427 95.1455 32.0595 94.6313 32.0595C94.1173 32.0595 93.7004 31.6427 93.7004 31.1285C93.7004 30.6144 94.1173 30.1975 94.6313 30.1975C95.1455 30.1975 95.5624 30.6144 95.5624 31.1285Z" fill="#f7f1e5"></path>
    </g>
    <path id="Vector_2" d="M50.0597 25.2119C50.1635 25.0802 50.2791 25.0137 50.402 25.0137C50.5153 25.0137 50.6206 25.0737 50.6762 25.1709C50.783 25.3567 50.666 25.5571 50.6162 25.6434C49.7079 27.2041 50.4202 28.1065 51.1596 28.8291C51.4566 29.118 51.6847 29.461 51.8493 29.8537C54.1932 29.3133 55.9192 27.4732 55.9192 25.2865C55.9192 22.6741 53.4582 20.5576 50.4224 20.5576C47.3866 20.5576 44.9257 22.6741 44.9257 25.2865C44.9257 27.7087 47.0436 29.7045 49.7723 29.9817C49.6809 29.8208 49.5719 29.657 49.4402 29.4888C48.7067 28.5468 48.684 26.7755 50.0597 25.2112" fill="#f7f1e5"></path>
  </g>
</svg>
