<?xml version="1.0" encoding="UTF-8"?><svg id="Layer_1" xmlns="http://www.w3.org/2000/svg" width="8.47mm" height="8.47mm" xmlns:xlink="http://www.w3.org/1999/xlink" viewBox="0 0 24 24"><defs><style>.cls-1{fill:none;}.cls-2{fill:#f7f1e5;fill-rule:evenodd;}.cls-3{clip-path:url(#clippath);}</style><clipPath id="clippath"><rect class="cls-1" width="24" height="24"/></clipPath></defs><g class="cls-3"><path class="cls-2" d="M22.75,4.83c.37.37.64.84.78,1.35.5,1.88.5,5.81.5,5.81,0,0,0,3.93-.5,5.81-.14.51-.4.98-.78,1.35-.37.37-.84.65-1.35.78-1.88.5-9.38.5-9.38.5,0,0-7.5,0-9.38-.5-.51-.14-.97-.41-1.35-.78-.37-.37-.64-.84-.78-1.35C.02,15.93.02,12,.02,12,.02,12,.02,8.07.53,6.19c.14-.51.4-.98.78-1.35.37-.37.84-.65,1.35-.78,1.88-.5,9.38-.5,9.38-.5,0,0,7.5,0,9.38.5.51.14.97.41,1.35.78ZM15.84,12l-6.27-3.57v7.14l6.27-3.57Z"/></g></svg>